<svg width="216" height="55" viewBox="0 0 216 55" fill="none" xmlns="http://www.w3.org/2000/svg">
<path d="M67.9749 46.25H62.1497V23.371H63.558L65.4784 26.084C66.4172 25.2295 67.4841 24.5744 68.679 24.1186C69.874 23.6486 71.1115 23.4138 72.3918 23.4138H77.5341V29.2243H72.3918C71.7801 29.2243 71.2039 29.3381 70.6634 29.566C70.1228 29.7939 69.6535 30.1073 69.2552 30.506C68.8569 30.9048 68.5439 31.3748 68.3163 31.9159C68.0887 32.4571 67.9749 33.0339 67.9749 33.6463V46.25ZM101.944 46.25H100.536L98.2742 43.1098C97.7195 43.6083 97.1292 44.0781 96.5033 44.5196C95.8916 44.9469 95.2444 45.3243 94.5615 45.6519C93.8787 45.9651 93.1746 46.2144 92.4491 46.3995C91.7379 46.5846 91.0124 46.6773 90.2727 46.6773C88.6652 46.6773 87.1502 46.4066 85.7277 45.8655C84.3195 45.3243 83.0819 44.541 82.015 43.5156C80.9624 42.476 80.1302 41.2085 79.5186 39.7131C78.9069 38.2178 78.601 36.5159 78.601 34.6075C78.601 32.8274 78.9069 31.1968 79.5186 29.7156C80.1302 28.2203 80.9624 26.9385 82.015 25.8704C83.0819 24.8023 84.3195 23.9763 85.7277 23.3924C87.1502 22.7943 88.6652 22.4951 90.2727 22.4951C91.0124 22.4951 91.745 22.5876 92.4704 22.7729C93.196 22.958 93.9 23.2144 94.5829 23.5419C95.2657 23.8694 95.9129 24.254 96.5246 24.6954C97.1505 25.1369 97.7337 25.614 98.2742 26.1268L100.536 23.4138H101.944V46.25ZM96.0765 34.6075C96.0765 33.81 95.9201 33.041 95.6071 32.3004C95.3084 31.5456 94.8959 30.8834 94.3695 30.3138C93.8432 29.7299 93.2244 29.267 92.5131 28.9251C91.8161 28.5691 91.0693 28.3911 90.2727 28.3911C89.476 28.3911 88.7221 28.5264 88.0108 28.797C87.3139 29.0676 86.7022 29.4664 86.1758 29.9933C85.6638 30.5203 85.2583 31.1754 84.9596 31.9586C84.6609 32.7276 84.5115 33.6106 84.5115 34.6075C84.5115 35.6045 84.6609 36.4945 84.9596 37.2779C85.2583 38.0469 85.6638 38.6949 86.1758 39.2218C86.7022 39.7488 87.3139 40.1475 88.0108 40.4181C88.7221 40.6886 89.476 40.824 90.2727 40.824C91.0693 40.824 91.8161 40.6531 92.5131 40.3113C93.2244 39.9553 93.8432 39.4924 94.3695 38.9228C94.8959 38.3389 95.3084 37.6766 95.6071 36.936C95.9201 36.1813 96.0765 35.4051 96.0765 34.6075ZM112.229 46.25H106.404V23.371H107.812L109.733 25.5926C110.671 24.7381 111.731 24.083 112.912 23.6274C114.107 23.1574 115.351 22.9224 116.646 22.9224C118.04 22.9224 119.356 23.193 120.593 23.7341C121.831 24.2611 122.912 24.9945 123.837 25.9345C124.761 26.8601 125.487 27.9496 126.013 29.2029C126.553 30.4419 126.824 31.7664 126.824 33.1763V46.25H120.999V33.1763C120.999 32.5781 120.885 32.0156 120.657 31.4886C120.43 30.9475 120.117 30.4775 119.719 30.0788C119.32 29.68 118.858 29.3666 118.332 29.1388C117.805 28.9109 117.243 28.797 116.646 28.797C116.034 28.797 115.458 28.9109 114.918 29.1388C114.377 29.3666 113.908 29.68 113.509 30.0788C113.111 30.4775 112.798 30.9475 112.57 31.4886C112.343 32.0156 112.229 32.5781 112.229 33.1763V46.25ZM136.853 46.25H130.985V14.2706H136.853V34.4366L145.537 23.4138H152.238L144.663 32.9413L152.238 46.25H145.537L140.907 37.9401L136.853 43.3234V46.25ZM162.906 40.6531C163.134 40.7243 163.361 40.7741 163.588 40.8026C163.817 40.8169 164.044 40.824 164.271 40.824C164.84 40.824 165.389 40.7456 165.914 40.589C166.441 40.4324 166.932 40.2116 167.386 39.9268C167.856 39.6276 168.269 39.2716 168.625 38.8586C168.994 38.4314 169.293 37.9614 169.52 37.4488L173.788 41.7425C173.247 42.5116 172.621 43.2023 171.911 43.8148C171.213 44.4271 170.453 44.9469 169.627 45.3741C168.816 45.8014 167.956 46.1219 167.045 46.3355C166.149 46.5634 165.225 46.6773 164.271 46.6773C162.664 46.6773 161.15 46.3781 159.726 45.78C158.318 45.1819 157.081 44.3488 156.014 43.2806C154.961 42.2125 154.129 40.945 153.517 39.4781C152.905 37.997 152.6 36.3735 152.6 34.6075C152.6 32.7989 152.905 31.1469 153.517 29.6515C154.129 28.1561 154.961 26.8815 156.014 25.8276C157.081 24.7738 158.318 23.9549 159.726 23.371C161.15 22.7871 162.664 22.4951 164.271 22.4951C165.225 22.4951 166.156 22.609 167.067 22.8369C167.977 23.0648 168.838 23.3924 169.649 23.8196C170.474 24.2469 171.242 24.7738 171.953 25.4004C172.664 26.0128 173.291 26.7035 173.831 27.4725L162.906 40.6531ZM165.893 28.6261C165.623 28.5264 165.352 28.4624 165.083 28.4339C164.827 28.4054 164.556 28.3911 164.271 28.3911C163.475 28.3911 162.72 28.5406 162.01 28.8398C161.313 29.1245 160.701 29.5375 160.175 30.0788C159.663 30.6199 159.257 31.275 158.958 32.0441C158.66 32.7989 158.51 33.6534 158.51 34.6075C158.51 34.8211 158.518 35.0633 158.531 35.3339C158.56 35.6045 158.595 35.8821 158.639 36.167C158.695 36.4376 158.759 36.701 158.83 36.9574C158.901 37.2138 158.993 37.4416 159.108 37.641L165.893 28.6261ZM185.695 40.6531C185.922 40.7243 186.15 40.7741 186.377 40.8026C186.605 40.8169 186.832 40.824 187.06 40.824C187.629 40.824 188.177 40.7456 188.703 40.589C189.23 40.4324 189.72 40.2116 190.175 39.9268C190.644 39.6276 191.058 39.2716 191.413 38.8586C191.783 38.4314 192.081 37.9614 192.309 37.4488L196.576 41.7425C196.036 42.5116 195.41 43.2023 194.698 43.8148C194.002 44.4271 193.241 44.9469 192.416 45.3741C191.604 45.8014 190.744 46.1219 189.834 46.3355C188.938 46.5634 188.014 46.6773 187.06 46.6773C185.453 46.6773 183.937 46.3781 182.515 45.78C181.107 45.1819 179.869 44.3488 178.803 43.2806C177.749 42.2125 176.918 40.945 176.306 39.4781C175.694 37.997 175.388 36.3735 175.388 34.6075C175.388 32.7989 175.694 31.1469 176.306 29.6515C176.918 28.1561 177.749 26.8815 178.803 25.8276C179.869 24.7738 181.107 23.9549 182.515 23.371C183.937 22.7871 185.453 22.4951 187.06 22.4951C188.014 22.4951 188.945 22.609 189.855 22.8369C190.765 23.0648 191.627 23.3924 192.437 23.8196C193.263 24.2469 194.03 24.7738 194.742 25.4004C195.452 26.0128 196.079 26.7035 196.62 27.4725L185.695 40.6531ZM188.682 28.6261C188.412 28.5264 188.141 28.4624 187.871 28.4339C187.615 28.4054 187.344 28.3911 187.06 28.3911C186.263 28.3911 185.509 28.5406 184.799 28.8398C184.101 29.1245 183.49 29.5375 182.963 30.0788C182.451 30.6199 182.046 31.275 181.747 32.0441C181.449 32.7989 181.299 33.6534 181.299 34.6075C181.299 34.8211 181.306 35.0633 181.32 35.3339C181.349 35.6045 181.384 35.8821 181.427 36.167C181.484 36.4376 181.547 36.701 181.618 36.9574C181.69 37.2138 181.782 37.4416 181.897 37.641L188.682 28.6261ZM205.389 46.25H199.564V23.371H200.972L202.893 26.084C203.832 25.2295 204.898 24.5744 206.093 24.1186C207.288 23.6486 208.526 23.4138 209.806 23.4138H214.949V29.2243H209.806C209.194 29.2243 208.618 29.3381 208.078 29.566C207.537 29.7939 207.068 30.1073 206.669 30.506C206.271 30.9048 205.958 31.3748 205.731 31.9159C205.503 32.4571 205.389 33.0339 205.389 33.6463V46.25Z" fill="white"/>
<path d="M32.4879 17.8438L56.0576 47.3125H8.91821L32.4879 17.8438Z" fill="#3498DB"/>
<path d="M32.8283 53.2697C32.3281 53.9677 31.2898 53.9639 30.7944 53.2624L6.89077 19.4147C6.30486 18.585 6.89969 17.4395 7.91448 17.4432L55.9537 17.6187C56.9684 17.6225 57.5553 18.7724 56.9637 19.5976L32.8283 53.2697Z" fill="#235AAA"/>
</svg>
