<svg width="173" height="44" viewBox="0 0 173 44" fill="none" xmlns="http://www.w3.org/2000/svg">
<path d="M54.4429 37H49.7773V18.6968H50.9053L52.4434 20.8672C53.1953 20.1836 54.0498 19.6595 55.0068 19.2949C55.9639 18.9189 56.9551 18.731 57.9805 18.731H62.0991V23.3794H57.9805C57.4906 23.3794 57.0291 23.4705 56.5962 23.6528C56.1632 23.8351 55.7873 24.0858 55.4683 24.4048C55.1493 24.7238 54.8986 25.0998 54.7163 25.5327C54.534 25.9657 54.4429 26.4271 54.4429 26.917V37ZM81.6499 37H80.522L78.7104 34.4878C78.2661 34.8866 77.7933 35.2625 77.292 35.6157C76.8021 35.9575 76.2837 36.2594 75.7368 36.5215C75.1899 36.7721 74.626 36.9715 74.0449 37.1196C73.4753 37.2677 72.8942 37.3418 72.3018 37.3418C71.0143 37.3418 69.8009 37.1253 68.6616 36.6924C67.5337 36.2594 66.5425 35.6328 65.688 34.8125C64.8449 33.9808 64.1784 32.9668 63.6885 31.7705C63.1986 30.5742 62.9536 29.2127 62.9536 27.686C62.9536 26.2619 63.1986 24.9574 63.6885 23.7725C64.1784 22.5762 64.8449 21.5508 65.688 20.6963C66.5425 19.8418 67.5337 19.181 68.6616 18.7139C69.8009 18.2354 71.0143 17.9961 72.3018 17.9961C72.8942 17.9961 73.481 18.0701 74.062 18.2183C74.6431 18.3664 75.207 18.5715 75.7539 18.8335C76.3008 19.0955 76.8192 19.4032 77.3091 19.7563C77.8104 20.1095 78.2775 20.4912 78.7104 20.9014L80.522 18.731H81.6499V37ZM76.9502 27.686C76.9502 27.048 76.8249 26.4328 76.5742 25.8403C76.335 25.2365 76.0046 24.7067 75.583 24.251C75.1615 23.7839 74.6659 23.4136 74.0962 23.1401C73.5379 22.8553 72.9398 22.7129 72.3018 22.7129C71.6637 22.7129 71.0599 22.8211 70.4902 23.0376C69.932 23.2541 69.4421 23.5731 69.0205 23.9946C68.6104 24.4162 68.2856 24.9403 68.0464 25.5669C67.8071 26.1821 67.6875 26.8885 67.6875 27.686C67.6875 28.4836 67.8071 29.1956 68.0464 29.8223C68.2856 30.4375 68.6104 30.9559 69.0205 31.3774C69.4421 31.799 69.932 32.118 70.4902 32.3345C71.0599 32.5509 71.6637 32.6592 72.3018 32.6592C72.9398 32.6592 73.5379 32.5225 74.0962 32.249C74.6659 31.9642 75.1615 31.5939 75.583 31.1382C76.0046 30.6711 76.335 30.1413 76.5742 29.5488C76.8249 28.945 76.9502 28.3241 76.9502 27.686ZM89.8872 37H85.2217V18.6968H86.3496L87.8877 20.4741C88.6396 19.7905 89.4884 19.2664 90.4341 18.9019C91.3911 18.5259 92.388 18.3379 93.4248 18.3379C94.5413 18.3379 95.5952 18.5544 96.5864 18.9873C97.5776 19.4089 98.4435 19.9956 99.1841 20.7476C99.9246 21.4881 100.506 22.3597 100.927 23.3623C101.36 24.3535 101.577 25.4131 101.577 26.541V37H96.9111V26.541C96.9111 26.0625 96.82 25.6125 96.6377 25.1909C96.4554 24.758 96.2048 24.382 95.8857 24.063C95.5667 23.744 95.1965 23.4933 94.7749 23.311C94.3534 23.1287 93.9033 23.0376 93.4248 23.0376C92.9349 23.0376 92.4735 23.1287 92.0405 23.311C91.6076 23.4933 91.2316 23.744 90.9126 24.063C90.5936 24.382 90.3429 24.758 90.1606 25.1909C89.9784 25.6125 89.8872 26.0625 89.8872 26.541V37ZM109.609 37H104.909V11.4165H109.609V27.5493L116.564 18.731H121.931L115.864 26.353L121.931 37H116.564L112.856 30.3521L109.609 34.6587V37ZM130.476 32.5225C130.658 32.5794 130.84 32.6193 131.022 32.6421C131.205 32.6535 131.387 32.6592 131.569 32.6592C132.025 32.6592 132.464 32.5965 132.885 32.4712C133.307 32.3459 133.7 32.1693 134.064 31.9414C134.44 31.7021 134.771 31.4173 135.056 31.0869C135.352 30.7451 135.591 30.3691 135.773 29.959L139.191 33.394C138.758 34.0093 138.257 34.5618 137.688 35.0518C137.129 35.5417 136.52 35.9575 135.859 36.2993C135.209 36.6411 134.52 36.8975 133.791 37.0684C133.073 37.2507 132.333 37.3418 131.569 37.3418C130.282 37.3418 129.069 37.1025 127.929 36.624C126.801 36.1455 125.81 35.479 124.956 34.6245C124.112 33.77 123.446 32.756 122.956 31.5825C122.466 30.3976 122.221 29.0988 122.221 27.686C122.221 26.2391 122.466 24.9175 122.956 23.7212C123.446 22.5249 124.112 21.5052 124.956 20.6621C125.81 19.819 126.801 19.1639 127.929 18.6968C129.069 18.2297 130.282 17.9961 131.569 17.9961C132.333 17.9961 133.079 18.0872 133.808 18.2695C134.537 18.4518 135.227 18.7139 135.876 19.0557C136.537 19.3975 137.152 19.819 137.722 20.3203C138.291 20.8102 138.793 21.3628 139.226 21.978L130.476 32.5225ZM132.868 22.9009C132.652 22.8211 132.435 22.7699 132.219 22.7471C132.014 22.7243 131.797 22.7129 131.569 22.7129C130.931 22.7129 130.327 22.8325 129.758 23.0718C129.2 23.2996 128.71 23.63 128.288 24.063C127.878 24.4959 127.553 25.02 127.314 25.6353C127.075 26.2391 126.955 26.9227 126.955 27.686C126.955 27.8569 126.961 28.0506 126.972 28.2671C126.995 28.4836 127.023 28.7057 127.058 28.9336C127.103 29.1501 127.154 29.3608 127.211 29.5659C127.268 29.771 127.342 29.9533 127.434 30.1128L132.868 22.9009ZM148.728 32.5225C148.91 32.5794 149.092 32.6193 149.274 32.6421C149.457 32.6535 149.639 32.6592 149.821 32.6592C150.277 32.6592 150.716 32.5965 151.137 32.4712C151.559 32.3459 151.952 32.1693 152.316 31.9414C152.692 31.7021 153.023 31.4173 153.308 31.0869C153.604 30.7451 153.843 30.3691 154.025 29.959L157.443 33.394C157.01 34.0093 156.509 34.5618 155.939 35.0518C155.381 35.5417 154.772 35.9575 154.111 36.2993C153.461 36.6411 152.772 36.8975 152.043 37.0684C151.325 37.2507 150.585 37.3418 149.821 37.3418C148.534 37.3418 147.32 37.1025 146.181 36.624C145.053 36.1455 144.062 35.479 143.208 34.6245C142.364 33.77 141.698 32.756 141.208 31.5825C140.718 30.3976 140.473 29.0988 140.473 27.686C140.473 26.2391 140.718 24.9175 141.208 23.7212C141.698 22.5249 142.364 21.5052 143.208 20.6621C144.062 19.819 145.053 19.1639 146.181 18.6968C147.32 18.2297 148.534 17.9961 149.821 17.9961C150.585 17.9961 151.331 18.0872 152.06 18.2695C152.789 18.4518 153.479 18.7139 154.128 19.0557C154.789 19.3975 155.404 19.819 155.974 20.3203C156.543 20.8102 157.045 21.3628 157.478 21.978L148.728 32.5225ZM151.12 22.9009C150.904 22.8211 150.687 22.7699 150.471 22.7471C150.266 22.7243 150.049 22.7129 149.821 22.7129C149.183 22.7129 148.579 22.8325 148.01 23.0718C147.451 23.2996 146.962 23.63 146.54 24.063C146.13 24.4959 145.805 25.02 145.566 25.6353C145.327 26.2391 145.207 26.9227 145.207 27.686C145.207 27.8569 145.213 28.0506 145.224 28.2671C145.247 28.4836 145.275 28.7057 145.31 28.9336C145.355 29.1501 145.406 29.3608 145.463 29.5659C145.52 29.771 145.594 29.9533 145.686 30.1128L151.12 22.9009ZM164.501 37H159.836V18.6968H160.964L162.502 20.8672C163.254 20.1836 164.108 19.6595 165.065 19.2949C166.022 18.9189 167.014 18.731 168.039 18.731H172.158V23.3794H168.039C167.549 23.3794 167.088 23.4705 166.655 23.6528C166.222 23.8351 165.846 24.0858 165.527 24.4048C165.208 24.7238 164.957 25.0998 164.775 25.5327C164.593 25.9657 164.501 26.4271 164.501 26.917V37Z" fill="white"/>
<path d="M26.0204 14.275L44.898 37.85H7.14286L26.0204 14.275Z" fill="#3498DB"/>
<path d="M26.293 42.6158C25.8924 43.1742 25.0608 43.1711 24.664 42.6099L5.51895 15.5318C5.04968 14.868 5.5261 13.9516 6.33886 13.9546L44.8147 14.095C45.6274 14.098 46.0975 15.0179 45.6237 15.6781L26.293 42.6158Z" fill="#235AAA"/>
</svg>
