<svg width="1387" height="783" viewBox="0 0 1387 783" fill="none" xmlns="http://www.w3.org/2000/svg">
<g opacity="0.15" clip-path="url(#clip0)">
<path opacity="0.1" d="M833.8 564.355C860.595 562.843 893.839 544.855 919.688 536.899C950.281 527.508 980.995 518.472 1011.83 509.792C1119.18 479.561 1227.68 453.802 1337.33 432.515C1347.56 430.523 1357.81 428.579 1368.07 426.683C1352.08 392.486 1327.31 363.039 1296.23 341.281C1297.02 333.795 1297.43 326.274 1297.44 318.746C1297.44 199.782 1201.38 103.341 1082.84 103.341C1046.35 103.302 1010.47 112.625 978.696 130.4C894.797 75.7776 785.292 42.7186 665.481 42.7186C495.234 42.7186 345.78 109.473 261.093 209.993L659.104 276.543L903.211 317.342C624.926 325.562 345.78 333.734 68.2952 314.438C31.6658 349.517 8.48199 396.096 2.70584 446.217C-3.07032 496.338 8.91978 546.889 36.627 589.23V589.23C36.627 593.538 36.8089 597.81 37.1362 602.045C44.2046 604.049 51.0305 605.993 57.1531 607.265C155.447 627.817 254.372 645.016 353.928 658.864C280.564 703.634 191.222 709.97 106.595 728.93C147.575 762.408 203.225 782.928 264.548 782.928H1177.64C1276.51 782.928 1356.65 714.806 1356.65 630.761C1371.49 606.546 1381.38 579.682 1385.75 551.695C1202.8 569.178 1017.57 553.999 833.8 564.355Z" fill="#235AAA"/>
<path opacity="0.1" d="M1387 515.9C1387.1 481.262 1378.78 447.109 1362.74 416.321C1346.7 385.533 1323.42 359.015 1294.86 339.002C1295.65 331.519 1296.05 324.001 1296.07 316.478C1296.07 197.514 1199.96 101.109 1081.47 101.109C1044.98 101.07 1009.09 110.389 977.314 128.156C893.415 73.5097 783.897 40.4387 664.087 40.4387C469.204 40.4387 301.454 127.976 227.061 253.504C222.926 253.264 218.768 253.132 214.573 253.132C96.0716 253.132 -0.0242392 349.573 -0.0242392 468.538C-0.107299 510.558 12.1593 551.695 35.2812 586.938V586.938C35.2812 693.975 137.354 780.744 263.215 780.744H1176.33C1275.19 780.744 1355.33 712.61 1355.33 628.565C1376.12 594.593 1387.08 555.618 1387 515.9V515.9Z" fill="#235AAA"/>
<path d="M1132.73 383.928C1131 382.611 1128.97 381.73 1126.82 381.36C1124.55 380.844 1122.23 380.52 1119.93 380.16L1090.08 375.9C1087.07 375.347 1083.99 375.185 1080.94 375.42C1079.41 375.545 1077.91 375.97 1076.55 376.67C1075.18 377.37 1073.97 378.333 1072.99 379.5C1072.1 380.587 1071.61 381.942 1071.6 383.34C1071.77 384.748 1072.23 386.105 1072.96 387.324C1073.25 387.894 1073.5 388.483 1073.7 389.088C1073.99 390.445 1074.34 391.787 1074.77 393.108C1074.9 393.394 1075.07 393.66 1075.28 393.9C1075.28 393.968 1075.28 394.036 1075.28 394.104C1074.95 395.76 1076 397.488 1075.53 399.084C1075.12 400.452 1073.77 401.28 1072.92 402.42C1072.36 403.228 1072.05 404.184 1072.02 405.167C1072 406.151 1072.27 407.119 1072.8 407.951C1073.71 409.343 1075.36 410.291 1075.83 411.887C1076.45 413.987 1074.78 416.015 1073.29 417.635C1070.54 420.617 1068.01 423.781 1065.7 427.103C1065.05 427.92 1064.63 428.893 1064.49 429.923C1064.35 432.011 1066.38 433.847 1066.03 435.923C1065.75 437.555 1064.13 438.55 1062.74 439.522C1057.59 442.882 1053.45 448.282 1053.04 454.39C1051.72 444.672 1047.65 435.522 1041.3 427.991C1039.57 425.927 1037.67 423.851 1036.95 421.235C1036.69 420.191 1036.64 419.075 1036.27 418.067C1035.06 414.887 1031.21 413.519 1029.52 410.591C1028.31 408.527 1028.31 405.876 1026.8 404.064C1025.3 402.252 1022.94 401.844 1021.64 400.092C1020.99 398.905 1020.44 397.669 1019.99 396.396C1019.45 395.358 1018.68 394.449 1017.75 393.732C1017.57 393.59 1017.38 393.458 1017.19 393.336C1017.39 393.158 1017.55 392.939 1017.66 392.696C1017.77 392.452 1017.83 392.187 1017.83 391.92C1017.83 390.516 1016.43 389.592 1015.2 388.896C1013.63 388.008 1012.09 387.048 1010.58 386.052C1012.22 385.296 1013.64 384.145 1014.72 382.704C1016.06 380.555 1016.62 378.012 1016.29 375.504C1016.21 373.48 1015.45 371.542 1014.12 369.997C1013.36 369.193 1012.4 368.617 1011.6 367.861C1009.53 365.857 1008.82 362.893 1007.96 360.157C1006.82 356.557 1005.04 352.777 1001.72 350.869C1000.12 349.945 998.252 349.513 996.688 348.541C995.124 347.569 993.815 345.733 994.36 343.969C994.724 342.769 995.851 341.941 996.615 340.922C997.527 339.603 997.877 337.981 997.589 336.409C997.3 334.836 996.397 333.44 995.076 332.522C994.178 331.958 993.075 331.466 992.893 330.434C992.191 330.253 991.555 329.881 991.057 329.359C990.56 328.836 990.221 328.186 990.08 327.482C989.808 326.071 989.808 324.621 990.08 323.21C990.396 320.978 990.707 318.754 991.014 316.538C991.548 316.758 992.121 316.871 992.699 316.871C993.278 316.871 993.85 316.758 994.384 316.538C995.434 318.223 996.652 319.799 998.022 321.242C1001.71 325.557 1004.59 330.496 1006.51 335.822C1007.2 337.742 1007.9 339.89 1009.7 340.909C1010.32 341.257 1011.02 341.437 1011.62 341.809C1012.37 342.325 1013.01 342.977 1013.52 343.729C1014.97 345.637 1016.43 347.533 1017.87 349.441L1017.94 349.729C1017.98 349.898 1018.05 350.06 1018.14 350.209C1018.4 350.508 1018.78 350.697 1019.18 350.737C1023.64 351.757 1028.65 352.693 1032.51 350.281C1036.01 348.121 1037.53 343.849 1040.49 340.994C1042.59 338.966 1045.56 337.394 1046.15 334.538C1045.45 334.321 1044.75 334.069 1044.07 333.782C1044.68 333.182 1045.28 332.486 1046.11 331.694C1047.3 330.533 1048.38 329.259 1049.33 327.89C1050.35 326.201 1051.17 324.396 1051.76 322.514C1054.09 315.922 1056.44 309.326 1058.79 302.727C1059.9 299.607 1061.02 296.463 1062.43 293.427C1063.88 290.139 1065.6 286.983 1067.19 283.755C1071.29 275.36 1074.45 266.549 1076.62 257.476C1077.01 256.238 1077.14 254.936 1077 253.648C1076.66 251.572 1075.07 249.94 1073.55 248.464C1072.03 246.831 1070.29 245.407 1068.39 244.228C1067.43 243.64 1066.37 243.246 1065.26 243.069C1064.15 242.891 1063.01 242.935 1061.92 243.197C1058.81 244.096 1056.86 247.24 1056.14 250.396C1055.43 253.552 1055.7 256.804 1055.39 259.996C1054.96 264.616 1053.36 269.08 1052.97 273.712C1052.76 276.387 1052.97 279.099 1052.64 281.775C1052.04 285.277 1050.81 288.644 1049 291.711C1045.07 299.027 1039.75 305.522 1033.33 310.838C1032.59 311.45 1031.82 312.038 1031.1 312.698C1031.1 312.182 1031.18 311.654 1031.25 311.138C1030.73 311.274 1030.21 311.455 1029.71 311.678C1029.78 311.072 1029.71 310.46 1029.53 309.878C1028.56 307.011 1024.25 306.279 1023.47 303.363C1023.34 302.642 1023.27 301.911 1023.26 301.179C1023.01 298.623 1021.25 296.463 1020.65 293.979C1020.09 291.687 1020.51 289.179 1019.43 287.055C1018.51 285.727 1017.43 284.518 1016.21 283.455C1014.75 281.808 1013.7 279.849 1013.14 277.731C1012.98 277.143 1012.84 276.531 1012.67 275.944C1012.85 274.612 1012.7 273.256 1012.23 271.996C1011.13 269.284 1008.28 267.544 1007.25 264.796C1006.45 262.66 1006.8 259.996 1005.28 258.34C1004.48 257.549 1003.49 256.96 1002.41 256.624C996.862 254.485 991.039 253.124 985.11 252.58C981.788 252.28 978.126 252.112 975.75 249.796C972.973 247.108 972.84 242.273 969.591 240.197C966.729 238.361 962.68 239.717 960.461 242.297C960.128 242.676 959.82 243.077 959.54 243.496C959.135 241.888 959.048 240.217 959.285 238.577C959.285 238.169 959.37 237.749 959.406 237.377C964.881 235.606 969.54 231.965 972.549 227.105C972.549 227.105 972.549 227.105 972.549 227.177L972.694 227.549C973.046 228.425 973.604 229.265 974.428 229.361C974.977 229.354 975.507 229.164 975.932 228.821C976.663 228.318 977.338 227.739 977.944 227.093C978.251 226.757 978.542 226.409 978.817 226.049C979.376 225.3 979.855 224.495 980.248 223.649C980.85 222.376 981.259 221.021 981.46 219.629C981.678 218.237 981.703 216.809 981.945 215.417C982.172 214.34 982.467 213.278 982.83 212.237C982.951 211.889 983.073 211.541 983.182 211.193C983.291 210.845 983.449 210.377 983.57 209.994C984.329 207.526 984.737 204.965 984.782 202.386C984.782 201.954 984.782 201.522 984.782 201.09C984.738 199.406 984.355 197.749 983.655 196.214C982.956 194.679 981.954 193.297 980.708 192.15C978.623 190.458 975.859 189.75 974.331 187.458C973.337 185.922 973.119 183.942 972.537 182.142C971.908 179.988 970.682 178.052 968.997 176.552C967.313 175.053 965.238 174.05 963.007 173.659C960.321 173.367 957.624 174.101 955.466 175.711V175.711L955.296 175.843C954.094 176.751 953.074 177.875 952.29 179.154C950.688 178.718 949.221 177.893 948.022 176.755C946.809 175.639 945.876 174.235 944.651 173.155C943.507 172.117 942.102 171.403 940.584 171.087C939.065 170.77 937.489 170.863 936.019 171.355C934.505 171.955 933.156 172.902 932.083 174.118C931.011 175.334 930.244 176.785 929.848 178.35C929.181 180.822 929.302 183.666 927.908 185.73C926.829 187.338 925.059 188.13 923.822 189.594C923.054 190.521 922.529 191.622 922.294 192.798V192.798C922.147 193.456 922.078 194.128 922.088 194.802V194.802C922.088 195.102 922.088 195.402 922.161 195.69C922.161 195.69 922.161 195.786 922.161 195.834C922.204 196.163 922.273 196.488 922.367 196.806V196.806C922.712 198.022 923.329 199.146 924.174 200.094C924.974 201.001 925.973 201.715 927.096 202.182C927.555 202.359 928.024 202.507 928.502 202.626L929.945 202.95L930.454 203.07C928.713 206.305 927.746 209.893 927.628 213.557C927.511 217.221 928.245 220.863 929.775 224.201C929.775 224.537 929.69 224.873 929.654 225.209C929.456 229.934 929.667 234.667 930.284 239.357C930.454 241.217 930.551 243.269 929.399 244.744C928.875 245.325 928.285 245.844 927.641 246.292C928.296 245.452 928.963 244.624 929.642 243.796C927.932 242.093 925.228 241.877 922.804 242.045C918.111 242.391 913.555 243.769 909.467 246.076C906.751 247.624 903.963 249.676 900.859 249.316C899.028 249.112 897.222 248.116 895.439 248.596C894.438 249.002 893.502 249.552 892.663 250.228C892 250.699 891.2 250.943 890.384 250.924C888.48 248.608 885.534 247.036 883.255 245.152C880.661 242.867 878.286 240.348 876.162 237.629C872.234 232.937 868.318 228.233 864.462 223.493C861.213 219.509 857.879 215.201 857.309 210.102C857.251 209.596 857.223 209.087 857.224 208.578C857.303 206.154 857.612 203.744 858.146 201.378C858.289 200.807 858.289 200.209 858.146 199.638C857.782 198.438 856.388 197.994 855.187 197.73C855.345 196.806 855.454 195.858 855.515 194.958C856.194 184.638 855.454 174.151 857.661 164.047C858.497 160.159 859.867 156.223 862.692 153.403C867.117 148.975 874.525 147.907 877.92 142.664C880.757 138.296 879.63 132.116 876.065 128.264C872.501 124.412 867.008 122.84 861.783 123.032C860.317 122.982 858.869 123.367 857.624 124.136C856.461 125.158 855.591 126.466 855.102 127.928L849.901 140.444C848.393 143.702 847.121 147.062 846.094 150.499C844.639 155.755 844.312 161.299 843.16 166.603C843.16 170.683 840.505 175.771 839.05 179.526C837.425 183.75 835.668 187.926 834.2 192.234C833.837 193.314 832.564 196.518 831.776 199.434C831.478 199.605 831.201 199.811 830.951 200.046C830.318 200.849 829.743 201.695 829.23 202.578C828.126 204.018 826.332 204.786 825.12 206.178C823.907 207.57 823.652 210.126 825.338 210.821C825.68 210.935 826.034 211.012 826.393 211.049C826.613 211.068 826.832 211.104 827.047 211.157C828.866 211.661 829.581 213.929 829.314 215.801C829.048 217.673 828.102 219.401 827.944 221.273C827.617 224.585 829.581 227.669 831.473 230.453C833.431 233.471 835.594 236.353 837.947 239.081C839.656 240.977 841.584 242.681 843.306 244.504C849.865 251.176 855.078 258.976 860.971 266.224C863.09 268.959 865.501 271.462 868.16 273.688C869.897 275.032 871.715 276.27 873.604 277.395L883.74 283.755C884.889 284.589 886.19 285.196 887.571 285.543C888.022 285.603 888.478 285.603 888.929 285.543C888.989 285.843 889.038 286.131 889.111 286.431C889.899 289.575 891.633 292.431 891.826 295.635C892.02 298.839 891.729 302.115 891.96 305.355C892.178 308.342 892.845 311.354 893.015 314.294C893.354 319.958 891.948 325.55 890.59 331.094C888.541 339.206 887.304 347.485 883.315 354.841C882.2 356.869 880.891 358.933 880.891 361.249C880.891 361.525 880.891 361.813 880.963 362.089L879.145 363.109C878.611 363.409 878.078 363.709 877.593 364.021C875.289 365.509 872.828 367.153 871.882 369.721C871.118 371.797 871.47 374.172 870.549 376.188C870.505 376.279 870.456 376.367 870.403 376.452C869.433 378.324 867.505 379.716 867.069 381.768C866.742 383.34 867.372 385.008 867.069 386.568C867.069 386.568 867.069 386.568 867.069 386.628C866.793 387.412 866.574 388.214 866.414 389.028C866.401 389.294 866.426 389.561 866.487 389.82C866.718 390.729 867.226 391.546 867.942 392.16C868.379 392.575 868.853 392.949 869.36 393.276C869.878 393.612 870.411 393.924 870.961 394.212L871.276 394.38C871.737 394.62 872.198 394.848 872.67 395.064L872.986 395.196C873.531 395.436 874.089 395.652 874.647 395.844L875.035 395.964C875.471 396.108 875.92 396.24 876.368 396.348L876.671 396.444L876.95 396.504L878.163 396.756L878.611 396.84C879.145 396.928 879.69 397 880.248 397.056H880.733C881.145 397.056 881.545 397.116 881.945 397.128H882.515C882.94 397.128 883.352 397.128 883.728 397.128H884.164C884.734 397.128 885.304 397.044 885.874 396.972H886.055C886.565 396.9 887.074 396.816 887.583 396.708L887.971 396.624C888.444 396.516 888.917 396.408 889.39 396.264L889.644 396.192C890.214 396.024 890.784 395.844 891.342 395.628C893.271 394.843 895.143 393.925 896.943 392.88C898.155 392.22 899.368 391.548 900.58 390.936C901.479 390.487 902.402 390.087 903.344 389.736C905.638 388.766 908.132 388.355 910.619 388.536C911.846 388.702 913.061 388.946 914.256 389.268C914.256 389.4 914.256 389.532 914.256 389.664C915.242 395.424 916.216 401.184 917.178 406.943C918.765 405.813 920.444 404.813 922.197 403.956C921.87 404.825 921.654 405.732 921.555 406.655C921.482 407.37 921.482 408.089 921.555 408.803C921.664 409.943 921.906 411.203 921.215 412.103C920.791 412.655 920.003 412.967 919.773 413.591C919.604 414.229 919.563 414.894 919.651 415.547C919.602 416.293 919.283 416.997 918.753 417.529C918.224 418.062 917.519 418.389 916.766 418.451C917.113 419.417 917.121 420.47 916.789 421.441C916.457 422.413 915.804 423.244 914.935 423.803C914.428 424.044 913.955 424.351 913.529 424.715C913.114 425.245 912.835 425.867 912.716 426.527C911.114 432.469 907.819 437.83 903.223 441.97C901.499 443.311 899.926 444.832 898.531 446.506C897.669 447.803 896.957 449.192 896.409 450.646C893.176 458.47 889.895 466.298 886.565 474.129C884.722 478.509 882.927 482.961 882.345 487.677C880.891 500.613 869.251 511.58 871.434 524.42C871.875 527.627 873.182 530.658 875.216 533.192C877.641 536.084 881.278 537.739 884.916 539.083C894.263 542.683 904.12 544.651 913.941 546.631L929.363 549.763C932.389 550.452 935.46 550.933 938.553 551.203C942.275 551.455 946.094 551.107 949.719 552.043C951.962 552.619 954.108 553.687 956.424 553.807C958.412 553.915 960.861 553.495 962.037 555.103C963.213 556.711 962.304 558.835 963.419 560.263C965.214 562.531 969.591 560.263 971.543 562.399C972.076 563.219 972.484 564.113 972.755 565.051C973.052 565.631 973.464 566.145 973.967 566.563C974.086 567.24 974.135 567.927 974.113 568.614C973.86 571.401 973.274 574.148 972.367 576.798C970.912 581.67 969.461 586.546 968.014 591.426C967.462 593.149 967.057 594.915 966.802 596.706C966.711 597.575 966.711 598.452 966.802 599.322C967.057 601.973 968.596 604.709 971.155 605.573C973.139 606.093 975.25 605.835 977.047 604.853C978.781 603.957 980.408 602.87 981.897 601.613C984.581 599.603 986.94 597.2 988.892 594.486C994.954 585.51 992.99 573.366 997.246 563.443C1000.07 556.819 1005.58 551.443 1007.41 544.459C1007.83 543.13 1007.88 541.711 1007.55 540.355C1006.79 537.955 1004.21 536.588 1001.79 535.724H1001.68C999.701 535.025 997.676 534.452 995.621 534.008C995.112 533.9 994.591 533.816 994.069 533.732C992.916 532.803 991.998 531.619 991.39 530.276C991.295 529.562 991.103 528.863 990.82 528.2C990.627 527.914 990.368 527.677 990.064 527.51C989.761 527.344 989.421 527.251 989.074 527.24C987.862 527.12 986.237 527.552 984.916 527.456C982.212 527.264 980.418 524.636 977.993 523.424C975.568 522.212 972.937 522.512 970.354 522.692C969.431 522.817 968.491 522.76 967.59 522.524C966.513 522.033 965.529 521.363 964.68 520.544C963.188 519.395 961.446 518.605 959.593 518.236C957.739 517.867 955.824 517.93 953.999 518.42C952.839 518.884 951.611 519.159 950.362 519.236C947.998 519.104 946.324 517.016 944.579 515.432C939.802 511.1 933 509.96 927.205 507.116C926.318 506.79 925.578 506.16 925.119 505.34C924.452 503.709 925.956 502.077 927.314 500.961L937.28 492.765C948.192 483.789 961.831 477.033 966.899 463.87C967.427 462.105 968.247 460.438 969.324 458.938C969.716 458.48 970.169 458.076 970.67 457.738C972.874 456.324 975.546 455.808 978.126 456.298C981.27 456.995 984.25 458.282 986.904 460.09C991.244 462.69 995.468 465.49 999.574 468.49C1003.64 471.366 1007.51 474.509 1011.15 477.897C1017.52 483.897 1022.82 491.013 1028.74 497.481C1034.67 503.949 1041.45 509.984 1049.68 513.08C1057.91 516.176 1067.87 516.044 1074.94 510.848C1083.1 504.848 1085.72 494.121 1087.78 484.281C1092.32 479.937 1093.69 473.325 1095.91 467.482C1097.31 463.774 1099.09 460.282 1100.59 456.586C1102.39 452.242 1103.79 447.754 1105.2 443.278C1106.79 438.784 1107.87 434.127 1108.42 429.395C1109.01 421.919 1106.98 413.963 1109.1 406.943C1111.9 406.331 1114.45 404.772 1117.2 403.86C1121.3 402.528 1125.69 402.744 1130.03 402.768H1130.31C1131.8 402.925 1133.31 402.574 1134.58 401.772C1136.03 400.572 1136.26 398.52 1136.33 396.66C1136.5 392.064 1136.21 386.904 1132.73 383.928ZM957.066 179.238C956.064 179.484 955.026 179.557 953.999 179.454L957.066 179.238Z" fill="url(#paint0_linear)"/>
<path d="M961.843 255.148C960.375 256.382 958.655 257.287 956.8 257.8L948.204 260.848C943.536 262.504 938.662 264.172 933.74 263.572C930.987 263.236 919.191 261.52 917.408 259.396C914.693 256.108 924.21 251.272 927.459 248.5C928.196 247.976 928.878 247.381 929.496 246.724C930.709 245.261 930.551 243.209 930.381 241.361C929.765 236.679 929.554 231.954 929.751 227.237C929.845 226.113 930.007 224.995 930.236 223.889C931.448 218.369 936.637 220.385 940.735 221.849C945.668 223.435 950.438 225.48 954.981 227.957C956.365 228.663 957.568 229.673 958.497 230.909C960.291 233.597 959.576 237.125 959.285 240.509C959.03 243.137 959.043 245.656 960.704 247.564C961.539 248.294 962.306 249.097 962.995 249.964C963.383 250.838 963.481 251.81 963.274 252.742C963.067 253.674 962.566 254.517 961.843 255.148Z" fill="#BE6F72"/>
<path d="M843.1 168.667C844.312 163.351 844.579 157.867 846.034 152.599C847.061 149.174 848.333 145.826 849.841 142.58L855.187 130.232C855.677 128.774 856.547 127.47 857.709 126.452C858.956 125.688 860.402 125.304 861.868 125.348C867.093 125.156 872.586 126.764 876.15 130.568C879.715 134.372 880.842 140.528 878.005 144.884C874.61 150.127 867.202 151.183 862.777 155.599C859.952 158.419 858.582 162.343 857.746 166.219C855.539 176.299 856.279 186.75 855.6 197.046C855.381 200.25 854.751 203.91 851.962 205.566C850.277 206.383 848.403 206.743 846.531 206.61L838.577 206.742C837.244 206.742 832.406 207.57 831.521 206.574C829.969 204.834 833.509 196.17 834.152 194.238C835.583 189.954 837.341 185.778 839.002 181.566C840.444 177.811 843.1 172.735 843.1 168.667Z" fill="#BE6F72"/>
<path d="M1007.32 545.647C1005.49 552.583 999.986 557.983 997.161 564.595C992.905 574.494 994.821 586.602 988.807 595.554C986.857 598.273 984.498 600.68 981.812 602.694C980.323 603.947 978.696 605.029 976.962 605.921C975.165 606.903 973.054 607.161 971.07 606.641C968.512 605.777 966.972 603.042 966.717 600.402C966.626 599.536 966.626 598.663 966.717 597.798C966.972 596.011 967.377 594.249 967.93 592.53C969.384 587.674 970.835 582.81 972.282 577.938C973.188 575.296 973.774 572.557 974.028 569.779C974.186 566.755 972.246 562.819 973.07 559.999C973.446 558.727 974.852 557.599 975.495 556.531C976.407 554.994 977.109 553.343 977.58 551.623C978.575 548.275 979.253 544.699 981.339 541.879C982.699 540.207 984.291 538.733 986.067 537.499C987.378 536.362 988.914 535.508 990.577 534.992C992.191 534.711 993.848 534.789 995.427 535.22C997.484 535.654 999.509 536.224 1001.49 536.924H1001.6C1004.02 537.788 1006.59 539.119 1007.36 541.543C1007.73 542.888 1007.72 544.309 1007.32 545.647V545.647Z" fill="#202225"/>
<path d="M1136.32 398.124C1136.25 399.984 1136.02 402.06 1134.56 403.224C1133.3 404.026 1131.79 404.377 1130.3 404.22H1129.97C1125.64 404.22 1121.24 403.98 1117.14 405.312C1114.03 406.332 1111.16 408.204 1107.91 408.576C1103.44 409.08 1099.23 406.656 1095.27 404.544C1091.54 402.553 1087.7 400.751 1083.79 399.144C1081.22 398.1 1075.97 397.428 1074.73 394.644C1074.31 393.327 1073.95 391.989 1073.66 390.636C1073.46 390.031 1073.21 389.442 1072.92 388.872C1072.2 387.656 1071.73 386.303 1071.57 384.9C1071.57 383.502 1072.06 382.147 1072.95 381.06C1073.94 379.902 1075.15 378.948 1076.51 378.254C1077.87 377.56 1079.36 377.139 1080.89 377.016C1083.95 376.781 1087.02 376.943 1090.03 377.496L1119.88 381.744C1122.18 382.068 1124.5 382.392 1126.77 382.944C1128.92 383.314 1130.95 384.195 1132.68 385.512C1136.21 388.44 1136.5 393.588 1136.32 398.124Z" fill="#202225"/>
<path d="M1110.08 405.804C1106.45 413.399 1109.07 422.387 1108.41 430.787C1107.86 435.507 1106.78 440.152 1105.19 444.634C1103.78 449.098 1102.37 453.574 1100.58 457.906C1099.08 461.506 1097.29 465.106 1095.9 468.778C1093.68 474.634 1092.26 481.221 1087.76 485.577C1085.7 495.393 1083.08 506.121 1074.92 512.072C1067.83 517.256 1057.95 517.436 1049.67 514.304C1041.39 511.172 1034.66 505.173 1028.73 498.705C1022.8 492.237 1017.51 485.193 1011.14 479.169C1007.49 475.781 1003.62 472.642 999.537 469.774C995.431 466.822 991.208 464.046 986.867 461.446C984.21 459.646 981.231 458.363 978.09 457.666C975.509 457.176 972.838 457.692 970.633 459.106C970.132 459.444 969.68 459.848 969.287 460.306C968.208 461.801 967.389 463.464 966.863 465.226C961.77 478.353 948.107 485.097 937.195 494.049L927.229 502.221C925.871 503.337 924.367 504.969 925.034 506.589C925.493 507.408 926.233 508.038 927.12 508.365C932.915 511.196 939.717 512.336 944.494 516.656C946.239 518.24 947.913 520.328 950.277 520.448C951.525 520.376 952.753 520.104 953.914 519.644C955.738 519.156 957.652 519.092 959.505 519.459C961.358 519.825 963.101 520.611 964.595 521.756C965.444 522.576 966.428 523.245 967.505 523.736C968.406 523.972 969.346 524.029 970.27 523.904C972.852 523.724 975.592 523.496 977.908 524.636C980.223 525.776 982.127 528.464 984.831 528.656C986.152 528.752 987.728 528.32 988.989 528.44C989.336 528.451 989.676 528.544 989.979 528.711C990.283 528.878 990.542 529.114 990.735 529.4C991.018 530.059 991.21 530.754 991.305 531.464C991.802 533.156 993.475 534.188 994.566 535.58C996.239 537.716 996.482 540.62 996.312 543.319C995.763 551.762 991.961 559.673 985.691 565.423C983.911 567.224 981.641 568.474 979.156 569.023C977.912 569.28 976.618 569.144 975.456 568.634C974.294 568.124 973.324 567.265 972.682 566.179C972.412 565.244 972.003 564.355 971.47 563.539C969.518 561.415 965.141 563.671 963.347 561.403C962.231 559.987 963.031 557.719 961.964 556.255C960.898 554.791 958.327 555.055 956.351 554.971C954.035 554.851 951.889 553.771 949.646 553.207C946.009 552.271 942.202 552.619 938.48 552.367C935.387 552.097 932.316 551.616 929.29 550.927L913.868 547.807C904.048 545.827 894.191 543.823 884.843 540.284C881.266 538.94 877.665 537.284 875.144 534.404C873.111 531.873 871.804 528.847 871.361 525.644C869.166 512.84 880.806 501.897 882.273 488.997C882.794 484.293 884.697 479.853 886.492 475.485C889.781 467.678 893.063 459.866 896.337 452.05C896.866 450.595 897.557 449.202 898.398 447.898C899.793 446.228 901.366 444.711 903.09 443.374C907.684 439.248 910.98 433.899 912.583 427.967C912.702 427.307 912.981 426.685 913.395 426.155C913.825 425.799 914.297 425.497 914.802 425.255C915.668 424.697 916.319 423.867 916.651 422.899C916.983 421.93 916.976 420.879 916.632 419.915C917.385 419.854 918.09 419.526 918.62 418.994C919.15 418.461 919.468 417.757 919.518 417.011C919.43 416.362 919.471 415.701 919.639 415.067C919.93 414.443 920.658 414.131 921.082 413.579C921.773 412.679 921.53 411.419 921.421 410.291C921.349 409.577 921.349 408.858 921.421 408.144C921.687 405.603 922.835 403.232 924.671 401.436C927.568 398.616 931.691 399.348 935.691 398.676C939.682 397.823 943.58 396.59 947.331 394.992C957.851 390.889 968.927 388.354 980.199 387.468C991.527 386.586 1002.9 388.38 1013.39 392.7C1014.92 393.312 1016.36 394.119 1017.67 395.1C1018.61 395.812 1019.37 396.717 1019.92 397.752C1020.37 399.022 1020.92 400.254 1021.57 401.436C1022.86 403.188 1025.31 403.752 1026.73 405.408C1028.15 407.064 1028.27 409.859 1029.45 411.911C1031.13 414.839 1035.04 416.195 1036.2 419.375C1036.56 420.383 1036.61 421.487 1036.88 422.531C1037.53 425.147 1039.5 427.211 1041.23 429.275C1047.59 436.799 1051.66 445.953 1052.97 455.674C1053.36 449.59 1057.49 444.202 1062.67 440.843C1064.06 439.943 1065.67 438.947 1065.95 437.315C1066.3 435.251 1064.28 433.415 1064.41 431.315C1064.56 430.289 1064.98 429.321 1065.63 428.507C1067.94 425.192 1070.47 422.037 1073.22 419.063C1074.71 417.443 1076.38 415.463 1075.76 413.327C1075.29 411.731 1073.64 410.795 1072.73 409.404C1072.2 408.574 1071.93 407.607 1071.95 406.625C1071.97 405.644 1072.29 404.69 1072.85 403.884C1073.7 402.744 1075.05 401.916 1075.46 400.56C1075.93 398.964 1074.88 397.236 1075.2 395.592C1075.65 394.275 1076.53 393.146 1077.7 392.388C1079.31 390.938 1081.14 389.748 1083.12 388.86C1086.32 387.66 1089.89 388.104 1093.28 388.572C1098.95 389.352 1105.32 390.552 1108.52 395.256C1110.57 398.196 1111.61 402.66 1110.08 405.804Z" fill="#65617D"/>
<path opacity="0.1" d="M1136.32 398.124C1136.25 399.984 1136.02 402.06 1134.56 403.224C1133.3 404.026 1131.79 404.377 1130.3 404.22H1129.97C1130.47 401.724 1133.53 400.296 1134.07 397.764C1134.16 396.986 1134.09 396.198 1133.86 395.449C1133.63 394.699 1133.24 394.005 1132.73 393.408C1130.14 389.94 1125.97 388.02 1121.82 386.616C1110.11 382.641 1097.56 381.712 1085.38 383.916C1082.06 384.45 1078.84 385.431 1075.8 386.832C1074.79 387.457 1073.82 388.138 1072.89 388.872C1072.16 387.656 1071.7 386.303 1071.53 384.9C1071.54 383.502 1072.02 382.147 1072.91 381.06C1073.9 379.902 1075.11 378.948 1076.48 378.254C1077.84 377.56 1079.33 377.139 1080.85 377.016C1083.91 376.781 1086.98 376.943 1090 377.496L1119.84 381.744C1122.15 382.068 1124.46 382.392 1126.73 382.944C1128.88 383.314 1130.91 384.195 1132.65 385.512C1136.21 388.44 1136.5 393.588 1136.32 398.124Z" fill="black"/>
<path opacity="0.1" d="M1007.32 545.647C1005.49 552.583 999.986 557.983 997.161 564.595C992.905 574.494 994.821 586.602 988.807 595.554C986.857 598.273 984.498 600.68 981.812 602.693C980.323 603.947 978.696 605.029 976.962 605.921C975.165 606.903 973.054 607.161 971.07 606.641C968.512 605.777 966.972 603.041 966.717 600.402C966.626 599.536 966.626 598.663 966.717 597.798L966.79 597.99C967.845 600.51 969.566 603.149 972.282 603.593C973.302 603.666 974.325 603.53 975.289 603.193C976.253 602.857 977.136 602.327 977.883 601.637C981.884 598.458 984.212 593.718 986.431 589.146C988.167 585.849 989.541 582.377 990.529 578.79C991.014 576.75 991.244 574.662 991.741 572.622C994.045 562.711 1001.89 554.623 1003.62 544.579C1003.76 543.888 1003.8 543.18 1003.72 542.479C1003.49 541.565 1003.14 540.686 1002.68 539.863C1002.26 538.935 1001.95 537.96 1001.76 536.959C1004.18 537.823 1006.75 539.155 1007.51 541.579C1007.83 542.927 1007.76 544.335 1007.32 545.647Z" fill="black"/>
<path opacity="0.1" d="M989.013 528.44C987.891 531.343 986.003 533.896 983.545 535.832C980.094 538.434 976.053 540.164 971.773 540.871C969.781 541.374 967.69 541.35 965.711 540.799C963.019 539.875 961.079 537.379 958.327 536.659C956.363 536.131 954.254 536.6 952.265 536.312C948.689 535.82 945.912 533.12 943.027 530.96C934.188 524.384 922.585 522.26 913.747 515.684C913.353 515.445 913.028 515.11 912.801 514.712C912.632 514.281 912.569 513.816 912.619 513.356C912.652 509.368 913.558 505.433 915.274 501.825C916.68 499.307 918.355 496.945 920.27 494.781C928.187 485.181 936.14 475.509 945.621 467.41C949.598 464.014 953.938 460.846 958.958 459.31C961.746 458.458 967.251 457.654 970.645 459.094C970.145 459.432 969.692 459.836 969.3 460.294C968.22 461.789 967.401 463.452 966.875 465.214C961.771 478.353 948.107 485.097 937.195 494.049L927.229 502.221C925.871 503.337 924.368 504.968 925.034 506.588C925.493 507.408 926.233 508.038 927.12 508.364C932.915 511.196 939.717 512.336 944.494 516.656C946.24 518.24 947.913 520.328 950.277 520.448C951.525 520.376 952.753 520.104 953.914 519.644C955.738 519.156 957.652 519.092 959.505 519.458C961.359 519.825 963.101 520.611 964.595 521.756C965.444 522.575 966.428 523.245 967.505 523.736C968.406 523.972 969.346 524.029 970.27 523.904C972.852 523.724 975.592 523.496 977.908 524.636C980.223 525.776 982.127 528.464 984.831 528.656C986.176 528.752 987.753 528.296 989.013 528.44Z" fill="black"/>
<path d="M877.508 365.581C875.204 367.045 872.755 368.701 871.81 371.245C871.034 373.32 871.397 375.696 870.464 377.712C869.53 379.728 867.433 381.132 866.972 383.292C866.645 384.864 867.287 386.52 866.972 388.092C866.697 388.909 866.475 389.743 866.305 390.588C866.184 392.376 867.736 393.828 869.251 394.824C872.478 396.901 876.152 398.2 879.978 398.617C883.804 399.034 887.675 398.556 891.281 397.224C894.518 396.024 897.44 394.068 900.544 392.532C903.571 390.807 907.033 389.974 910.522 390.132C912.522 390.348 914.438 391.068 916.438 391.332C917.426 391.525 918.447 391.478 919.412 391.193C920.378 390.909 921.259 390.396 921.979 389.7C922.597 388.856 923.012 387.883 923.192 386.856C924.877 380.268 924.113 373.284 922.513 366.661C920.912 360.037 918.487 353.665 916.778 347.077C915.565 342.193 914.632 337.19 912.607 332.57C910.582 327.95 907.176 323.654 902.411 321.89C902.035 321.708 901.609 321.653 901.198 321.734C900.893 321.861 900.622 322.058 900.41 322.31C896.641 326.263 893.801 330.992 892.093 336.158C890.19 341.905 889.668 348.001 887.922 353.773C887.171 356.173 886.201 359.389 884.285 361.225C882.37 363.061 879.678 364.201 877.508 365.581Z" fill="#202225"/>
<path opacity="0.1" d="M923.228 386.82C923.025 387.851 922.59 388.823 921.955 389.664C921.236 390.363 920.355 390.876 919.389 391.159C918.423 391.441 917.401 391.484 916.414 391.284C914.426 391.044 912.51 390.312 910.51 390.084C907.02 389.924 903.558 390.757 900.532 392.484C897.428 394.02 894.47 395.928 891.257 397.164C886.557 398.928 881.422 399.217 876.55 397.992C873.963 397.348 871.503 396.277 869.276 394.824C867.748 393.84 866.208 392.424 866.329 390.588C866.499 389.747 866.722 388.918 866.996 388.104C867.311 386.532 866.681 384.876 866.996 383.304C867.457 381.144 869.567 379.704 870.488 377.713C871.409 375.721 871.058 373.333 871.822 371.257C872.767 368.701 875.229 367.057 877.532 365.581C879.836 364.105 882.576 362.977 884.419 361.189C884.657 360.911 884.872 360.614 885.061 360.301C886.39 358.272 887.366 356.037 887.947 353.689C889.729 347.905 890.214 341.822 892.105 336.062C893.821 330.9 896.665 326.176 900.435 322.226C900.636 321.969 900.904 321.77 901.211 321.65C901.62 321.568 902.045 321.618 902.423 321.794C907.176 323.57 910.582 327.866 912.619 332.486C914.656 337.106 915.517 342.086 916.79 346.981C918.487 353.569 920.924 359.965 922.525 366.577C924.125 373.189 924.913 380.22 923.228 386.82Z" fill="black"/>
<path opacity="0.1" d="M959.285 240.473C953.584 242.266 947.415 241.909 941.963 239.473C936.511 237.036 932.162 232.691 929.751 227.273C929.845 226.149 930.007 225.031 930.236 223.925C931.448 218.405 936.637 220.421 940.735 221.885C945.668 223.471 950.438 225.516 954.981 227.993C956.365 228.699 957.567 229.709 958.497 230.945C960.291 233.597 959.576 237.125 959.285 240.473Z" fill="black"/>
<path d="M951.962 240.401C965.354 240.401 976.21 229.656 976.21 216.401C976.21 203.147 965.354 192.402 951.962 192.402C938.57 192.402 927.714 203.147 927.714 216.401C927.714 229.656 938.57 240.401 951.962 240.401Z" fill="#BE6F72"/>
<path opacity="0.1" d="M1017.76 395.748C1017.76 397.74 1015.03 398.376 1013.01 398.268C1005.73 397.848 998.616 395.868 991.414 396.468C982.309 397.284 973.943 402.264 964.814 402.72C961.298 402.9 957.721 402.384 954.254 403.02C949.768 403.848 945.767 406.547 941.196 406.931C937.231 407.267 933.315 405.792 929.351 405.948C926.579 406.111 923.877 406.873 921.434 408.179C921.699 405.639 922.847 403.268 924.683 401.472C927.581 398.652 931.703 399.384 935.704 398.712C939.695 397.859 943.593 396.625 947.343 395.028C957.863 390.925 968.94 388.39 980.211 387.504C991.532 386.613 1002.91 388.394 1013.4 392.7C1014.92 393.312 1016.36 394.119 1017.67 395.1C1017.74 395.309 1017.77 395.529 1017.76 395.748V395.748Z" fill="black"/>
<path d="M940.747 260.224L930.927 256.624L926.78 255.112C925.091 254.411 923.312 253.943 921.494 253.72C916.742 253.36 912.268 256.492 909.734 260.488C907.2 264.484 906.242 269.248 905.43 273.892C904.314 280.243 903.369 286.619 902.593 293.019C901.757 298.798 901.332 304.628 901.32 310.466C901.598 325.322 904.775 339.974 908.267 354.433C909.977 360.844 911.269 367.357 912.134 373.932C912.425 376.644 912.559 379.368 912.85 382.092C913.165 385.152 913.674 388.176 914.183 391.212L917.105 408.455C920.743 405.9 924.877 403.656 929.351 403.524C933.315 403.38 937.243 404.844 941.196 404.508C945.742 404.136 949.768 401.436 954.254 400.608C957.721 399.972 961.298 400.476 964.826 400.308C973.943 399.852 982.321 394.86 991.414 394.056C998.628 393.408 1005.79 395.424 1013.02 395.844C1015.03 395.964 1017.76 395.328 1017.76 393.324C1017.76 391.932 1016.35 391.008 1015.13 390.312C1009.36 386.872 1003.86 382.993 998.701 378.708C993.924 374.964 989.074 371.125 985.788 366.061C977.871 353.881 980.587 337.406 973.834 324.554C968.342 314.114 973.834 300.435 973.834 288.663C973.834 282.795 973.834 276.855 972.44 271.156C971.568 267.968 970.483 264.841 969.191 261.796L964.474 249.976C964.376 249.631 964.183 249.319 963.916 249.076C963.599 248.86 963.222 248.747 962.838 248.752C960.005 248.584 957.212 249.47 955.005 251.236C952.787 253.024 951.368 255.592 949.186 257.452C946.797 259.504 943.718 261.304 940.747 260.224Z" fill="#E3E8F4"/>
<path d="M956.594 253.408C957.369 250.12 958.206 246.7 960.425 244.133C962.643 241.565 966.693 240.209 969.554 242.045C972.804 244.133 972.937 248.956 975.713 251.644C978.138 253.948 981.775 254.128 985.073 254.428C991.003 254.962 996.827 256.32 1002.37 258.46C1003.46 258.792 1004.44 259.376 1005.25 260.164C1006.76 261.868 1006.46 264.484 1007.21 266.608C1008.24 269.344 1011.09 271.084 1012.19 273.808C1013.41 276.832 1012.19 280.215 1011.18 283.323C1009.35 288.903 1008.19 294.699 1006.41 300.303C1004.63 305.907 1002.1 311.426 997.925 315.65C996.082 317.522 993.342 319.25 990.917 318.134L989.983 324.794C989.711 326.201 989.711 327.647 989.983 329.054C990.124 329.758 990.463 330.408 990.961 330.931C991.458 331.453 992.094 331.825 992.796 332.006C992.978 333.038 994.081 333.53 994.978 334.094C995.641 334.542 996.207 335.116 996.643 335.782C997.08 336.448 997.378 337.194 997.521 337.975C997.665 338.757 997.65 339.558 997.477 340.334C997.305 341.109 996.979 341.844 996.518 342.493C995.754 343.513 994.627 344.317 994.263 345.529C993.718 347.281 995.015 349.129 996.591 350.089C998.167 351.049 1000.02 351.493 1001.62 352.417C1004.94 354.313 1006.73 358.045 1007.87 361.669C1008.72 364.405 1009.42 367.369 1011.5 369.361C1012.3 370.117 1013.26 370.693 1014.03 371.485C1015.35 373.031 1016.11 374.969 1016.2 376.992C1016.53 379.501 1015.97 382.045 1014.62 384.192C1012.19 387.624 1007.67 388.644 1003.71 390.192C997.27 392.808 991.972 397.488 986.298 401.472C983.987 403.314 981.264 404.581 978.356 405.168C974.428 405.684 970.561 403.968 966.608 403.812C964.243 403.833 961.89 404.14 959.6 404.724L952.326 406.284C952.714 400.704 949.61 395.112 947.876 389.796C944.603 379.788 943.997 369.085 944.773 358.597C945.548 348.109 947.707 337.766 949.84 327.47C951.332 320.27 951.186 312.746 953.478 305.751C955.624 299.019 958.691 292.551 959.819 285.543C961.661 274.204 953.999 264.592 956.594 253.408Z" fill="#202225"/>
<path d="M1011.75 275.596C1012.42 276.815 1012.89 278.131 1013.14 279.496C1013.7 281.609 1014.75 283.565 1016.21 285.207C1017.43 286.272 1018.51 287.481 1019.43 288.807C1020.55 290.895 1020.12 293.439 1020.65 295.719C1021.25 298.203 1023.01 300.363 1023.26 302.919C1023.27 303.651 1023.34 304.382 1023.47 305.103C1024.26 308.007 1028.57 308.703 1029.53 311.607C1030.17 313.49 1029.07 315.542 1029.28 317.522C1029.43 318.135 1029.47 318.769 1029.39 319.394C1029.11 320.101 1028.63 320.711 1028 321.146C1023.99 324.94 1021.21 329.833 1020.03 335.198C1018.86 340.534 1018.25 345.974 1018.2 351.433L1013.46 345.229C1012.95 344.477 1012.31 343.825 1011.56 343.31C1010.96 342.95 1010.25 342.77 1009.64 342.41C1007.84 341.402 1007.14 339.266 1006.45 337.346C1004.53 332.031 1001.65 327.104 997.961 322.802C996.033 320.558 993.79 318.302 993.366 315.386C993.239 314.047 993.312 312.697 993.584 311.379C994.797 303.519 996.094 295.467 999.962 288.495C1001.77 285.231 1004.11 282.279 1005.84 278.968C1007.01 276.772 1008.64 271.06 1011.75 275.596Z" fill="#202225"/>
<path d="M892.142 283.143C892.164 284.154 891.904 285.15 891.39 286.023C890.926 286.555 890.323 286.948 889.646 287.16C888.97 287.372 888.247 287.394 887.559 287.223C886.178 286.88 884.878 286.277 883.728 285.447C880.349 283.335 876.97 281.219 873.592 279.099C871.705 277.974 869.888 276.74 868.148 275.404C865.489 273.182 863.078 270.683 860.958 267.952C855.066 260.752 849.853 252.94 843.294 246.352C841.511 244.553 839.656 242.825 837.935 240.941C835.582 238.217 833.419 235.339 831.46 232.325C829.569 229.553 827.605 226.481 827.932 223.169C828.126 221.297 829.036 219.569 829.302 217.709C829.569 215.849 828.854 213.581 827.035 213.077C826.82 213.024 826.601 212.988 826.38 212.969C826.021 212.932 825.668 212.855 825.326 212.741C823.64 212.045 823.895 209.466 825.107 208.11C826.32 206.754 828.114 205.998 829.217 204.51C829.731 203.627 830.306 202.781 830.939 201.978C831.751 201.289 832.721 200.807 833.764 200.574C840.758 198.534 848.155 198.258 855.284 199.77C856.497 200.034 857.879 200.514 858.243 201.678C858.388 202.245 858.388 202.839 858.243 203.406C857.708 205.772 857.399 208.182 857.321 210.606C857.319 211.111 857.348 211.616 857.406 212.118C857.976 217.205 861.31 221.513 864.559 225.485C868.415 230.213 872.331 234.905 876.259 239.585C878.383 242.297 880.758 244.807 883.352 247.084C885.777 249.076 888.917 250.684 890.808 253.24C892.348 255.304 891.851 258.124 892.02 260.608C892.584 268.108 892.625 275.638 892.142 283.143V283.143Z" fill="#202225"/>
<path d="M1046.12 333.206C1047.32 332.054 1048.4 330.787 1049.34 329.426C1050.36 327.739 1051.18 325.938 1051.77 324.062L1058.8 304.323C1059.92 301.203 1061.03 298.071 1062.44 295.035C1063.89 291.759 1065.61 288.603 1067.2 285.435C1071.29 277.098 1074.45 268.347 1076.62 259.336C1077.01 258.098 1077.13 256.796 1077 255.508C1076.66 253.432 1075.07 251.812 1073.55 250.336C1072.03 248.707 1070.29 247.287 1068.39 246.112C1067.43 245.524 1066.37 245.13 1065.26 244.953C1064.15 244.775 1063.01 244.819 1061.92 245.08C1058.81 245.98 1056.86 249.124 1056.14 252.28C1055.43 255.436 1055.7 258.664 1055.39 261.88C1054.96 266.488 1053.36 270.94 1052.97 275.56C1052.76 278.235 1052.97 280.935 1052.64 283.599C1052.04 287.097 1050.81 290.46 1049 293.523C1045.06 300.82 1039.74 307.298 1033.33 312.602C1031.57 313.886 1029.99 315.391 1028.62 317.078C1027.48 318.766 1026.71 320.67 1026.36 322.67C1025.55 325.715 1025.9 328.946 1027.34 331.754C1029.31 335.09 1033.11 336.554 1036.73 337.298C1041.63 338.306 1042.76 336.65 1046.12 333.206Z" fill="#BE6F72"/>
<path d="M952.108 181.626C953.151 179.685 954.75 178.091 956.703 177.043C958.657 175.996 960.879 175.54 963.092 175.735C965.321 176.125 967.395 177.126 969.08 178.623C970.764 180.12 971.991 182.054 972.622 184.206C973.191 185.994 973.422 187.974 974.416 189.51C975.919 191.826 978.708 192.498 980.793 194.178C982.039 195.323 983.04 196.702 983.74 198.235C984.439 199.768 984.823 201.424 984.867 203.106C984.983 206.541 984.436 209.966 983.254 213.197C982.753 214.576 982.348 215.988 982.042 217.421C981.8 218.813 981.775 220.229 981.557 221.621C981.288 223.426 980.658 225.159 979.702 226.719C978.746 228.279 977.485 229.635 975.992 230.705C975.567 231.048 975.037 231.238 974.489 231.245C973.543 231.137 972.961 230.045 972.61 229.061C970.682 223.553 971.142 216.821 967.59 212.429C965.974 210.658 964.021 209.218 961.843 208.194C960.955 207.627 959.955 207.254 958.909 207.102C957.372 207.183 955.894 207.718 954.666 208.638C952.107 210.336 949.267 211.579 946.276 212.309C944.783 212.659 943.23 212.675 941.73 212.355C940.231 212.036 938.822 211.389 937.607 210.462C935.934 209.094 934.709 207.042 932.854 205.974C930.999 204.906 929.06 204.966 927.229 204.234C926.062 203.743 925.024 202.994 924.194 202.046C923.364 201.098 922.763 199.974 922.438 198.761C922.113 197.548 922.072 196.278 922.318 195.047C922.564 193.816 923.091 192.657 923.858 191.658C925.071 190.218 926.865 189.402 927.944 187.806C929.338 185.742 929.217 182.91 929.884 180.438C930.279 178.875 931.044 177.426 932.118 176.214C933.191 175.001 934.541 174.06 936.055 173.467C937.524 172.973 939.1 172.878 940.618 173.193C942.137 173.507 943.542 174.219 944.688 175.255C945.9 176.335 946.87 177.727 948.058 178.854C949.231 179.966 950.667 180.768 952.235 181.187C953.802 181.607 955.451 181.63 957.03 181.254" fill="#202225"/>
<path opacity="0.1" d="M972.04 358.249C971.334 358.871 970.834 359.689 970.604 360.597C970.375 361.504 970.428 362.459 970.755 363.337C971.021 363.901 983.533 361.513 984.855 361.333C988.153 360.865 993.936 361.093 996.155 358.105C1000.11 352.813 987.862 353.989 985.619 354.181C981.351 354.541 975.289 355.117 972.04 358.249Z" fill="black"/>
<path d="M858.218 203.454C857.684 205.82 857.375 208.23 857.297 210.654C853.66 211.386 849.877 210.186 846.385 208.986L836.359 205.602C835.749 205.216 835.013 205.074 834.302 205.206C833.59 205.337 832.956 205.732 832.527 206.31C830.915 207.966 828.696 211.11 826.465 212.969C826.106 212.932 825.753 212.855 825.411 212.741C823.725 212.045 823.98 209.466 825.192 208.11C826.405 206.754 828.199 205.998 829.302 204.51C829.816 203.627 830.391 202.781 831.024 201.978C831.836 201.289 832.806 200.807 833.849 200.574C840.842 198.534 848.24 198.258 855.369 199.77C856.582 200.034 857.964 200.514 858.328 201.678C858.446 202.269 858.408 202.881 858.218 203.454Z" fill="#202225"/>
<path opacity="0.1" d="M858.218 203.454C857.684 205.82 857.375 208.23 857.297 210.654C853.66 211.386 849.877 210.186 846.385 208.986L836.359 205.602C835.749 205.216 835.013 205.074 834.302 205.206C833.59 205.337 832.956 205.732 832.527 206.31C830.915 207.966 828.696 211.11 826.465 212.969C826.106 212.932 825.753 212.855 825.411 212.741C823.725 212.045 823.98 209.466 825.192 208.11C826.405 206.754 828.199 205.998 829.302 204.51C829.816 203.627 830.391 202.781 831.024 201.978C831.836 201.289 832.806 200.807 833.849 200.574C840.842 198.534 848.24 198.258 855.369 199.77C856.582 200.034 857.964 200.514 858.328 201.678C858.446 202.269 858.408 202.881 858.218 203.454Z" fill="black"/>
<path opacity="0.1" d="M949.937 431.267C951.683 431.843 953.575 432.683 954.169 434.411L940.129 430.883L932.854 429.047C931.569 428.723 926.962 428.351 926.113 427.355C924.901 425.891 929.205 426.899 929.981 427.007C932.333 427.355 934.685 427.715 937.025 428.135C941.438 428.915 945.682 430.199 949.937 431.267Z" fill="black"/>
<path opacity="0.1" d="M955.381 443.566C954.169 442.763 950.689 442.859 949.198 442.511C947.015 441.995 944.869 441.311 942.724 440.651C938.371 439.247 934.055 437.651 929.581 436.619C928.756 436.439 925.944 436.391 926.077 435.359C926.21 434.327 928.89 433.967 929.557 433.919C933.521 433.631 938.468 435.467 942.154 436.775C946.851 438.44 951.3 440.725 955.381 443.566V443.566Z" fill="black"/>
<path opacity="0.1" d="M946.482 420.299C942.032 419.099 937.995 416.363 933.412 415.835C932.218 415.88 931.043 415.525 930.078 414.827C929.539 414.303 929.165 413.637 928.999 412.907C932.066 412.751 935.631 414.035 938.419 415.247C939.954 415.899 941.431 416.678 942.833 417.575C943.851 418.187 945.379 419.951 946.482 420.299Z" fill="black"/>
<path d="M1031.3 312.854C1030.55 317.843 1031.64 322.933 1034.37 327.193C1037.1 331.453 1041.29 334.597 1046.17 336.05C1045.57 338.894 1042.6 340.466 1040.5 342.494C1037.55 345.337 1036.02 349.597 1032.53 351.757C1028.64 354.157 1023.63 353.221 1019.19 352.213C1018.79 352.169 1018.41 351.976 1018.15 351.673C1018.06 351.529 1017.99 351.371 1017.95 351.205C1016.49 345.889 1015.53 340.214 1017.03 334.886C1018.24 330.35 1021.15 326.486 1023.48 322.478C1025.81 318.47 1026.03 314.174 1031.3 312.854Z" fill="#202225"/>
<path d="M922.901 244.048C918.208 244.386 913.651 245.76 909.564 248.068C906.848 249.604 904.06 251.668 900.956 251.296C899.125 251.092 897.319 250.096 895.536 250.576C894.532 250.977 893.596 251.527 892.76 252.208C892.336 252.542 891.832 252.762 891.296 252.846C890.761 252.93 890.213 252.876 889.705 252.688L888.492 269.296C888.032 275.607 887.583 282.051 889.111 288.207C889.899 291.351 891.632 294.207 891.826 297.399C892.02 300.591 891.729 303.867 891.96 307.095C892.178 310.082 892.845 313.022 893.015 316.01C893.354 321.65 891.948 327.242 890.59 332.726C888.541 340.813 887.304 349.081 883.315 356.401C882.2 358.429 880.89 360.493 880.89 362.797C880.89 363.085 880.89 363.361 880.963 363.637C879.751 364.297 878.623 364.921 877.593 365.569C875.289 367.045 872.828 368.689 871.882 371.245C871.118 373.32 871.47 375.696 870.549 377.7C869.627 379.704 867.518 381.132 867.057 383.292C866.729 384.864 867.36 386.52 867.057 388.092C866.782 388.905 866.56 389.735 866.39 390.576C866.269 392.376 867.809 393.828 869.336 394.812C871.564 396.265 874.023 397.336 876.611 397.98L883.849 369.541C890.448 357.464 895.938 344.826 900.253 331.778C901.487 327.513 903.073 323.355 904.993 319.346C906.366 317.078 907.581 314.721 908.631 312.29C909.734 309.266 909.843 305.991 910.376 302.799C911.01 299.073 911.963 295.408 913.226 291.843C914.535 287.991 916.051 284.151 916.317 280.107C916.717 274.324 914.596 268.216 916.851 262.864C917.808 260.861 919.054 259.005 920.549 257.356C923.677 253.564 926.526 249.592 929.654 245.8C928.029 244.084 925.325 243.904 922.901 244.048Z" fill="#202225"/>
<g opacity="0.1">
<path opacity="0.1" d="M957.066 177.678L955.551 177.786L955.381 177.906C955.949 177.884 956.513 177.807 957.066 177.678V177.678Z" fill="black"/>
<path opacity="0.1" d="M984.806 202.59C984.553 204.975 984.033 207.326 983.255 209.597C982.753 210.976 982.348 212.388 982.042 213.821C981.8 215.213 981.775 216.629 981.557 218.021C981.288 219.826 980.658 221.56 979.702 223.12C978.746 224.68 977.485 226.035 975.992 227.105C975.567 227.448 975.037 227.638 974.489 227.645C973.543 227.537 972.961 226.445 972.61 225.461C970.682 219.953 971.143 213.221 967.59 208.829C965.974 207.058 964.021 205.618 961.843 204.594C960.955 204.027 959.955 203.654 958.909 203.502C957.372 203.584 955.894 204.118 954.666 205.038C952.107 206.736 949.268 207.979 946.276 208.71C944.783 209.06 943.23 209.075 941.731 208.756C940.231 208.436 938.822 207.789 937.607 206.862C935.934 205.494 934.71 203.442 932.855 202.374C931 201.306 929.06 201.366 927.229 200.634C926.085 200.15 925.066 199.418 924.248 198.492C923.429 197.565 922.832 196.468 922.501 195.282C922.458 195.132 922.425 194.98 922.404 194.826C922.101 196.165 922.134 197.558 922.501 198.882C922.832 200.068 923.429 201.165 924.248 202.092C925.066 203.018 926.085 203.75 927.229 204.234C929.06 204.966 931.121 204.978 932.855 205.974C934.588 206.97 935.934 209.093 937.607 210.461C938.822 211.389 940.231 212.036 941.731 212.355C943.23 212.675 944.783 212.659 946.276 212.309C949.268 211.579 952.107 210.336 954.666 208.637C955.894 207.718 957.372 207.183 958.909 207.102C959.955 207.254 960.955 207.627 961.843 208.194C963.994 209.238 965.918 210.69 967.505 212.465C971.058 216.857 970.597 223.589 972.525 229.097C972.876 230.093 973.458 231.173 974.404 231.281C974.986 231.284 975.55 231.079 975.992 230.705C977.491 229.632 978.757 228.271 979.715 226.705C980.673 225.138 981.304 223.397 981.569 221.585C981.787 220.193 981.812 218.777 982.054 217.385C982.36 215.952 982.766 214.54 983.267 213.161C984.448 209.93 984.995 206.504 984.879 203.07C984.855 202.926 984.831 202.758 984.806 202.59Z" fill="black"/>
</g>
<path d="M908.097 298.875L907.273 309.831C907.151 311.318 904.278 346.741 883.085 388.14C864.899 423.647 829.508 469.894 762.692 495.885C757.479 497.925 752.068 499.829 746.458 501.597L740.202 482.157C755.908 477.265 771.037 470.716 785.328 462.622C819.385 443.158 845.864 415.379 864.329 379.632C874.126 360.6 881.108 340.273 885.061 319.274H809.043V298.875H908.097Z" fill="#235AAA"/>
<path opacity="0.1" d="M754.509 495.897C821.313 469.906 856.715 423.671 874.889 388.164C896.082 346.765 898.968 311.366 899.077 309.854L899.901 298.899H908.388L907.564 309.854C907.454 311.342 904.569 346.765 883.376 388.164C865.19 423.671 829.799 469.906 762.996 495.897C757.782 497.937 752.367 499.845 746.749 501.621L745.925 499.065C748.851 498.033 751.712 496.977 754.509 495.897Z" fill="white"/>
<path d="M620.755 482.157L614.499 501.597C608.882 499.821 603.466 497.913 598.253 495.873C531.449 469.882 496.046 423.647 477.872 388.14C456.679 346.741 453.794 311.342 453.685 309.831L452.86 298.875H551.866V319.274H475.836C479.81 340.275 486.812 360.603 496.628 379.632C515.093 415.379 541.56 443.158 575.617 462.61C589.91 470.712 605.043 477.266 620.755 482.157V482.157Z" fill="#235AAA"/>
<path opacity="0.1" d="M606.425 495.897C539.621 469.906 504.218 423.671 486.044 388.164C464.851 346.765 461.966 311.366 461.856 309.854L461.032 298.899H452.545L453.37 309.854C453.479 311.342 456.364 346.765 477.557 388.164C495.743 423.671 531.134 469.906 597.938 495.897C603.151 497.937 608.567 499.845 614.184 501.621L615.008 499.065C612.091 498.033 609.229 496.977 606.425 495.897Z" fill="white"/>
<path d="M794.846 670.072V780.072H566.1V670.072L573.374 660.472C647.501 634.433 662.523 566.527 665.518 539.659C665.963 535.947 666.218 532.214 666.281 528.476H694.567C694.63 532.214 694.885 535.947 695.331 539.659C698.374 566.527 713.396 634.457 787.474 660.472L794.846 670.072Z" fill="#235AAA"/>
<path opacity="0.1" d="M794.846 670.072H566.1V683.871H794.846V670.072Z" fill="black"/>
<path opacity="0.1" d="M585.498 660.472C659.625 634.433 674.647 566.527 677.642 539.659C678.087 535.947 678.342 532.214 678.405 528.476H666.281C666.218 532.214 665.963 535.947 665.518 539.659C662.474 566.527 647.453 634.457 573.374 660.472L566.1 670.072V780.072H578.224V670.072L585.498 660.472Z" fill="white"/>
<path opacity="0.1" d="M531.352 298.875H551.866V319.274H533.171C532.435 312.554 531.829 305.755 531.352 298.875Z" fill="black"/>
<path opacity="0.1" d="M620.755 482.157L614.499 501.597C608.882 499.821 603.466 497.913 598.253 495.873C589.677 485.507 582.099 474.371 575.617 462.61C589.91 470.712 605.043 477.266 620.755 482.157Z" fill="black"/>
<path opacity="0.1" d="M740.19 482.157C755.896 477.265 771.025 470.716 785.316 462.622C778.831 474.385 771.253 485.525 762.68 495.897C757.467 497.937 752.055 499.841 746.446 501.609L740.19 482.157Z" fill="black"/>
<path opacity="0.1" d="M829.581 298.875C829.104 305.755 828.498 312.554 827.763 319.274H809.079V298.875H829.581Z" fill="black"/>
<path opacity="0.1" d="M695.379 539.659C685.533 541.548 675.412 541.548 665.566 539.659C666.012 535.947 666.267 532.214 666.33 528.476H694.615C694.679 532.214 694.934 535.947 695.379 539.659V539.659Z" fill="black"/>
<path d="M533.777 265.084C534.298 416.351 599.768 538.675 680.479 538.675C761.189 538.675 826.647 416.351 827.181 265.084H533.777Z" fill="#235AAA"/>
<path opacity="0.1" d="M559.844 265.084H533.777C534.298 416.351 599.768 538.675 680.479 538.675C684.846 538.668 689.205 538.302 693.512 537.583C618.9 525.248 560.341 408.119 559.844 265.084Z" fill="white"/>
<path d="M758.267 712.178H602.678V751.777H758.267V712.178Z" fill="#202225"/>
<path opacity="0.1" d="M609.953 717.578H758.267V712.178H602.678V751.777H609.953V717.578Z" fill="white"/>
<path d="M450.799 411.131C447.999 410.207 431.51 397.296 430.261 391.452C429.012 385.608 438.978 331.166 438.978 331.166C438.978 331.166 438.057 331.166 436.553 330.986V330.11L438.602 258.592C438.602 258.592 447.004 210.594 431.134 213.389C415.263 216.185 425.217 258.592 425.217 258.592C425.217 258.592 423.411 280.119 422.138 286.575C420.925 292.803 415.373 318.17 419.155 326.054C419.294 326.334 419.448 326.606 419.616 326.87V326.87C419.616 326.87 420.246 353.929 413.396 357.625C406.861 361.141 404.146 378.84 403.915 380.424L403.564 380.28C401.612 379.072 399.899 377.523 398.508 375.708C398.362 375.528 398.253 375.336 398.12 375.144C402.581 370.178 404.985 363.728 404.852 357.084C404.719 350.44 402.06 344.09 397.405 339.302C395.24 337.076 392.7 335.241 389.9 333.878C389.818 331.585 389.27 329.332 388.287 327.254C385.135 320.582 367.676 311.858 355.273 311.654C349.551 311.486 344.859 313.094 343.149 317.522C342.276 319.766 342.543 322.322 342.179 324.65C341.452 329.45 338.336 333.206 334.335 336.194C332.719 334.409 330.973 332.744 329.109 331.214C325.06 328.142 316.985 318.014 316.985 318.014C316.985 318.014 291.779 292.179 289.912 285.099C288.045 278.019 262.863 235.505 257.262 242.909C251.66 250.312 276.551 282.579 276.551 282.579C276.551 282.579 281.28 294.303 284.917 298.263C288.554 302.223 316.44 342.301 316.44 342.301L317.773 345.037C311.881 348.109 306.498 352.021 304.594 358.117C301.806 367.093 307.904 376.116 312.123 384.516C320.344 400.908 321.52 421.811 310.911 436.787C301.406 450.01 284.917 456.298 269.483 461.794C276.937 467.587 286.197 470.629 295.671 470.398C292.107 480.621 279.473 484.005 268.707 485.901C274.357 491.277 282.444 493.233 290.203 494.421C294.003 495.061 297.854 495.362 301.709 495.321H302.655L303.6 495.249C304.914 495.162 306.222 494.998 307.516 494.757C313.118 493.629 318.561 490.605 321.423 485.709C323.847 481.521 324.696 475.809 329.097 473.709C330.243 473.197 331.478 472.908 332.734 472.857H332.601C333.426 472.857 334.274 472.857 335.099 472.857L353.442 473.037C354.206 473.037 354.994 473.037 355.782 473.037C360.959 472.917 366.488 472.03 369.119 467.794C370.201 465.737 370.771 463.453 370.78 461.134C371.168 455.386 370.78 449.47 370.938 443.674C372.502 454.222 374.138 470.662 370.247 476.733C367.085 481.334 363.252 485.447 358.874 488.937C357.773 489.852 356.766 490.873 355.867 491.985C355.273 492.405 354.922 492.633 354.922 492.633L354.546 493.749C353.164 495.823 352.162 498.122 351.587 500.541C351.376 501.162 351.297 501.82 351.357 502.473C351.781 503.325 348.326 506.84 349.332 508.316C340.7 518.336 339.063 533.516 339.063 533.516L323.302 557.203C315.203 578.262 303.079 580.422 303.079 580.422C303.079 580.422 274.599 561.511 273.823 560.587C273.047 559.663 262.16 555.043 262.16 555.043C260.876 552.815 258.917 551.043 256.559 549.979C252.824 548.443 252.509 542.779 252.509 542.779C252.048 529.4 244.107 528.38 244.107 528.38C237.706 527.84 232.82 528.968 229.061 531.032L227.921 531.116C222.417 531.56 215.797 532.052 208.523 532.532C188.288 533.852 183.474 546.823 183.474 546.823C183.474 546.823 180.989 549.595 184.25 552.595C187.512 555.595 208.389 552.595 209.275 552.523C207.683 552.694 206.074 552.584 204.522 552.199C207.808 552.079 212.33 551.959 216.185 551.959H217.119C216.876 553.982 216.759 556.018 216.767 558.055C216.767 561.895 227.497 564.355 227.497 564.355L260.172 593.154C260.172 593.154 280.71 602.238 293.78 615.305C306.849 628.373 318.404 617.093 318.404 617.093C332.237 613.709 372.041 566.083 372.077 566.035C372.077 567.427 372.914 613.745 374.502 623.045C374.565 623.517 374.683 623.98 374.854 624.425C376.721 628.421 374.223 639.34 373.144 643.948C372.456 647.805 372.192 651.723 372.356 655.636C372.356 655.636 357.431 712.034 358.668 716.99C359.905 721.946 350.581 744.973 350.581 744.973V764.173L352.206 764.089C351.995 764.398 351.8 764.718 351.624 765.049L351.515 765.253C351.515 765.253 361.469 767.4 368.161 766.789C374.854 766.177 386.347 771.888 386.347 771.888C386.347 771.888 390.239 773.712 402.218 774.48C414.196 775.248 414.196 769.248 414.196 769.248C412.826 761.077 393.901 758.341 393.319 758.257C391.791 757.309 390.36 756.277 389.184 755.389L388.942 755.197C389.021 755.017 389.09 754.833 389.148 754.645C391.173 746.485 379.97 742.945 379.97 742.945V740.953C387.245 737.257 388.687 711.89 388.687 711.89C388.687 711.89 399.599 680.523 401.127 675.291C402.654 670.059 401.127 662.224 401.127 662.224L402.218 655.456C402.218 655.456 404.558 650.848 404.558 649.924C404.861 647.582 405.771 645.358 407.201 643.468C408.91 641.464 405.334 636.701 405.334 636.701L408.45 628.709V619.937L415.724 588.114C415.724 588.114 423.35 551.047 420.707 538.915C418.064 526.784 423.823 520.616 423.823 520.616C423.304 520.886 422.77 521.127 422.223 521.336C422.951 519.67 423.578 517.963 424.102 516.224L440.469 518.228V518.468H446.374C446.374 518.468 444.507 495.669 444.507 486.477C444.507 477.285 450.799 444.298 450.799 444.298C450.799 444.298 453.6 412.055 450.799 411.131ZM378.139 384.516C378.139 385.416 378.054 386.352 377.994 387.312L377.666 387.804L377.06 387.3L376.321 388.44L376.102 388.548C374.502 387.732 373.678 383.064 372.526 384.072L372.368 384.204C372.114 383.916 371.859 383.832 371.592 384.072L371.35 384.276C371.35 383.928 371.35 383.568 371.35 383.208C373.568 383.773 375.849 384.059 378.139 384.06C378.151 384.216 378.139 384.372 378.139 384.516ZM432.577 490.689H432.928L432.346 492.201C432.419 491.697 432.492 491.205 432.577 490.689V490.689ZM372.817 762.805L370.586 762.253L371.798 762.049L372.926 762.781L373.059 762.877L372.817 762.805ZM395.61 759.577C394.871 759.193 394.119 758.749 393.391 758.293C393.634 758.425 394.592 758.917 395.61 759.577V759.577Z" fill="url(#paint1_linear)"/>
<path d="M440.627 468.022L425.945 505.892H429.509L415.7 516.788L440.627 519.86V468.022Z" fill="#F86D70"/>
<path opacity="0.1" d="M440.627 468.022L425.945 505.892L422.247 504.908L415.7 516.788L440.627 519.86V468.022Z" fill="black"/>
<path d="M417.603 492.249H440.627L449.078 423.431H417.603V492.249Z" fill="#F86D70"/>
<path opacity="0.1" d="M417.603 492.249H440.627L449.078 423.431H417.603V492.249Z" fill="black"/>
<path d="M372.635 439.727L377.606 438.899L389.027 436.979C389.027 436.979 423.326 429.323 430.406 428.699C434.696 428.138 438.879 426.958 442.822 425.195C444.677 424.403 445.853 423.803 445.853 423.803L433.498 401.472L414.33 387.408C414.33 387.408 402.206 384.852 397.077 377.868C395.933 376.366 395.188 374.603 394.91 372.741C394.633 370.879 394.832 368.979 395.489 367.213C398.617 357.613 376.806 376.392 376.806 376.392C376.806 376.392 377.012 380.892 376.806 386.628C376.806 387.756 376.697 388.932 376.612 390.132C376.612 390.924 376.503 391.716 376.418 392.532C375.884 398.232 374.793 404.1 372.635 407.604C367.361 416.171 372.635 439.727 372.635 439.727Z" fill="#FBBEBE"/>
<path opacity="0.1" d="M376.806 387.108H377.291C378.164 387.108 378.867 385.272 379.716 385.188C386.541 384.54 392.773 383.124 397.102 378.336C395.96 376.835 395.217 375.074 394.939 373.215C394.662 371.355 394.859 369.457 395.513 367.693C398.641 358.093 376.83 376.86 376.83 376.86C376.83 376.86 377.06 381.372 376.806 387.108Z" fill="black"/>
<path d="M350.254 359.893C350.252 363.348 350.939 366.769 352.274 369.961C353.609 373.153 355.566 376.053 358.034 378.496C360.502 380.939 363.433 382.876 366.658 384.197C369.883 385.519 373.339 386.198 376.83 386.196C377.703 386.196 378.564 386.196 379.425 386.076C384.545 385.579 389.41 383.621 393.429 380.441C397.447 377.26 400.446 372.993 402.062 368.158C403.678 363.323 403.84 358.128 402.531 353.203C401.221 348.278 398.495 343.836 394.683 340.415C390.872 336.994 386.139 334.741 381.059 333.931C375.979 333.12 370.771 333.787 366.067 335.849C361.362 337.912 357.364 341.282 354.557 345.55C351.75 349.818 350.255 354.8 350.254 359.893Z" fill="#FBBEBE"/>
<path d="M342.094 319.97C341.221 322.202 341.488 324.698 341.137 327.062C339.839 335.594 331.073 340.706 323.144 344.281C315.215 347.857 306.268 352.093 303.746 360.337C300.981 369.253 307.019 378.192 311.214 386.556C319.386 402.852 320.55 423.635 310.002 438.539C300.63 451.738 284.299 458.002 268.925 463.498C276.324 469.259 285.52 472.288 294.931 472.066C291.403 482.229 278.855 485.601 268.161 487.473C273.775 492.825 281.813 494.769 289.512 495.945C295.125 496.809 300.884 497.373 306.486 496.257C312.087 495.141 317.397 492.129 320.283 487.257C322.708 483.093 323.532 477.417 327.909 475.317C329.885 474.548 332.013 474.24 334.129 474.417L352.315 474.609C357.977 474.609 364.682 474.177 367.603 469.39C368.681 467.344 369.247 465.073 369.252 462.766C370.04 450.958 367.749 438.479 372.659 427.703C374.138 424.451 364.645 419.303 365.639 415.859C369.058 404.016 369.919 394.692 369.883 382.368C369.883 372.829 376.151 364.609 381.328 356.557C386.505 348.505 390.833 338.342 386.747 329.702C382.14 320.066 347.538 306.063 342.094 319.97Z" fill="#202225"/>
<path d="M366.306 759.349L370.938 762.385L371.653 762.853L371.786 762.937L377.279 766.537L390.106 768.673L401.381 767.905C401.381 767.905 404.631 761.185 399.526 761.341C397.891 761.258 396.298 760.802 394.871 760.009L394.167 759.661C393.428 759.277 392.688 758.845 391.961 758.389C390.445 757.441 389.015 756.409 387.863 755.533C386.166 754.237 385.038 753.253 385.038 753.253L366.306 759.349Z" fill="#FBBEBE"/>
<path opacity="0.1" d="M370.998 762.385L371.714 762.853L371.847 762.937L377.339 766.537L390.166 768.673L401.442 767.905C401.442 767.905 404.691 761.185 399.587 761.341C397.952 761.258 396.359 760.802 394.931 760.009C395.828 760.705 396.58 761.461 396.653 762.097C396.859 763.813 388.312 766.897 388.312 766.897L376.26 763.741C376.26 763.741 374.211 763.165 371.41 762.445L371.144 762.373L370.998 762.385Z" fill="black"/>
<path d="M350.387 765.312C350.387 765.312 360.268 767.448 366.912 766.836C373.556 766.224 385.002 771.888 385.002 771.888C385.002 771.888 388.869 773.688 400.763 774.456C412.657 775.224 412.657 769.248 412.657 769.248C411.299 761.125 392.506 758.449 391.924 758.329C392.155 758.449 393.137 758.941 394.131 759.601C395.465 760.465 396.907 761.593 397.017 762.504C397.223 764.208 388.675 767.304 388.675 767.304L376.624 764.16C376.624 764.16 374.575 763.572 371.774 762.852H371.507C367.355 761.733 363.135 760.871 358.874 760.273C353.685 759.721 351.03 764.088 350.484 765.072C350.445 765.149 350.412 765.23 350.387 765.312V765.312Z" fill="#202225"/>
<path d="M194.641 549.523L199.89 553.507C199.89 553.507 201.418 553.435 203.697 553.363H204.425C207.686 553.243 212.184 553.123 216.003 553.123C218.472 553.013 220.946 553.15 223.387 553.531C226.006 554.443 230.661 538.699 230.661 538.699L225.4 537.499L223.654 537.091L222.441 536.803L218.162 535.807L205.189 537.271L196.071 543.079L194.641 549.523Z" fill="#FBBEBE"/>
<path opacity="0.1" d="M194.641 549.523L199.89 553.507C199.89 553.507 201.418 553.435 203.697 553.363C202.651 552.964 201.789 552.2 201.273 551.215C197.878 541.891 214.718 537.907 214.718 537.907L222.563 537.571L224.09 537.499H225.303L223.557 537.091L222.344 536.803L218.065 535.807L205.092 537.271L195.974 543.079L194.641 549.523Z" fill="black"/>
<path d="M184.287 553.735C187.463 556.639 208.268 553.735 209.141 553.663C207.562 553.839 205.964 553.729 204.425 553.339C203.663 553.204 202.941 552.902 202.312 552.456C201.682 552.01 201.162 551.43 200.788 550.759C197.393 541.423 214.233 537.452 214.233 537.452L222.078 537.116L223.593 537.044L242.664 536.228L243.586 531.032C243.586 531.032 237.39 531.608 227.667 532.376C222.199 532.82 215.543 533.312 208.353 533.78C188.263 535.1 183.486 547.999 183.486 547.999C183.486 547.999 181.05 550.759 184.287 553.735Z" fill="#202225"/>
<path d="M417.616 328.502C417.745 328.787 417.899 329.06 418.076 329.318L422.708 336.038L434.759 337.238L434.892 332.51L436.917 261.376C436.917 261.376 445.259 213.665 429.497 216.413C413.736 219.161 423.629 261.376 423.629 261.376C423.629 261.376 421.835 282.783 420.574 289.215C419.349 295.431 413.857 320.702 417.616 328.502Z" fill="#FBBEBE"/>
<path d="M390.567 505.184L393.998 510.992L401.672 523.988C401.672 523.988 415.591 529.04 419.155 525.188C421.107 523.088 423.217 515.756 424.696 509.588C425.908 504.596 426.721 500.385 426.721 500.385L390.567 505.184Z" fill="#FBBEBE"/>
<path opacity="0.1" d="M390.567 505.184L393.998 510.992C394.213 510.809 394.408 510.604 394.58 510.38C398.459 505.484 415.542 509.336 424.696 509.648C425.908 504.656 426.721 500.445 426.721 500.445L390.567 505.184Z" fill="black"/>
<path opacity="0.1" d="M216.003 553.099C218.472 552.989 220.946 553.126 223.387 553.507C226.006 554.419 230.661 538.676 230.661 538.676L223.654 537.044L242.725 536.228L243.646 531.032C243.646 531.032 237.451 531.608 227.727 532.376C225.718 533.521 223.926 535.003 222.429 536.756L222.138 537.116C218.077 542.047 216.573 548.407 216.003 553.099Z" fill="black"/>
<path opacity="0.1" d="M366.306 759.349L371.653 762.853C379.631 761.425 386.917 759.181 387.778 755.653C387.782 755.597 387.782 755.541 387.778 755.485C386.081 754.189 384.953 753.205 384.953 753.205L366.306 759.349Z" fill="black"/>
<path opacity="0.1" d="M350.496 765.108C357.541 764.762 364.561 764.016 371.52 762.877C367.363 761.748 363.14 760.879 358.874 760.273C353.697 759.721 351.042 764.088 350.496 765.108Z" fill="black"/>
<path d="M216.585 559.159C216.585 562.987 227.242 565.435 227.242 565.435L259.699 594.03C259.699 594.03 280.092 603.053 293.064 616.049C306.037 629.045 317.482 617.885 317.482 617.885C331.231 614.525 370.829 567.115 370.829 567.115C370.829 567.115 371.75 621.257 373.605 625.229C375.46 629.201 372.987 640.06 371.908 644.656C371.227 648.489 370.967 652.384 371.132 656.272C371.132 656.272 356.304 712.394 357.54 717.29C358.777 722.186 349.502 745.129 349.502 745.129V764.245C349.502 764.245 385.814 762.865 387.814 754.765C389.815 746.665 378.709 743.137 378.709 743.137V741.145C385.984 737.473 387.354 712.25 387.354 712.25C387.354 712.25 398.181 681.051 399.72 675.855C401.26 670.659 399.72 662.848 399.72 662.848L400.799 656.128C400.799 656.128 403.115 651.532 403.115 650.62C403.418 648.291 404.324 646.08 405.746 644.2C407.443 642.208 403.891 637.468 403.891 637.468L406.983 629.513V620.801L414.257 589.146C414.257 589.146 421.835 552.283 419.204 540.199C416.573 528.116 422.295 522.008 422.295 522.008C409.892 528.44 403.636 514.124 401.587 507.968C401.066 506.384 400.811 505.328 400.811 505.328C400.811 505.328 383.777 499.113 367.919 500.601C364.698 500.859 361.524 501.524 358.474 502.581C340.858 508.856 338.081 534.848 338.081 534.848L322.478 558.403C314.439 579.354 302.388 581.49 302.388 581.49C302.388 581.49 274.114 562.687 273.29 561.763C272.465 560.839 261.699 556.255 261.699 556.255C260.426 554.037 258.479 552.274 256.134 551.215C252.424 549.679 252.121 544.015 252.121 544.015C251.66 530.708 243.78 529.616 243.78 529.616C216.428 527.36 216.585 555.343 216.585 559.159Z" fill="#202225"/>
<path d="M373.884 484.389H390.567V433.163H373.884V484.389Z" fill="#F86D70"/>
<path opacity="0.1" d="M373.884 484.389H390.567V433.163H373.884V484.389Z" fill="black"/>
<path opacity="0.1" d="M417.603 328.394C417.601 328.43 417.601 328.466 417.603 328.502C417.732 328.787 417.887 329.06 418.064 329.318L422.696 336.038L434.747 337.238L434.88 332.51C431.122 332.222 422.562 331.202 417.603 328.394Z" fill="black"/>
<path d="M418.076 329.318C418.076 329.318 418.695 356.221 411.893 359.893C405.091 363.565 402.448 382.692 402.448 382.692C402.448 382.692 423.059 396.108 427.654 402.012C432.249 407.916 442.797 421.979 440.627 425.339C438.457 428.699 445.889 443.998 445.889 443.998C445.889 443.998 432.286 471.526 435.377 481.929C438.469 492.333 438.772 519.848 438.772 519.848H444.652C444.652 519.848 442.797 497.217 442.797 488.037C442.797 478.857 448.969 446.134 448.969 446.134C448.969 446.134 451.757 414.023 448.969 413.111C446.18 412.199 429.812 399.348 428.576 393.528C427.339 387.708 437.232 333.53 437.232 333.53C437.232 333.53 424.563 332.99 418.076 329.318Z" fill="#F86D70"/>
<path opacity="0.1" d="M373.569 428.411C374.133 432.154 375.51 435.733 377.606 438.899L389.027 436.979C389.027 436.979 423.326 429.323 430.406 428.699C434.696 428.138 438.879 426.958 442.822 425.195C440.104 415.664 434.8 407.053 427.485 400.296L423.132 396.3C416.718 390.406 409.285 385.703 401.187 382.416C401.697 382.836 437.681 413.243 429.8 419.207C421.92 425.171 400.702 410.651 400.702 410.651L376.575 390.132L375.702 389.388L374.308 391.536C375.017 391.825 375.71 392.153 376.381 392.52C384.604 396.987 390.707 404.493 393.355 413.399C398.314 429.899 373.569 428.411 373.569 428.411Z" fill="black"/>
<path d="M366.149 504.872C366.149 504.872 389.015 517.412 394.568 510.38C395.78 508.832 398.338 508.16 401.527 507.98C401.005 506.396 400.751 505.34 400.751 505.34C400.751 505.34 383.716 499.125 367.858 500.613C366.815 503.204 366.149 504.872 366.149 504.872Z" fill="#444053"/>
<path d="M376.672 389.412L401.672 410.699C401.672 410.699 422.805 425.267 430.77 419.255C438.736 413.243 402.145 382.452 402.145 382.452C410.225 385.749 417.651 390.438 424.078 396.3L428.43 400.296C439.875 410.795 442.458 410.795 442.846 426.227C442.943 430.031 441.633 435.491 440.627 436.475C436.917 440.075 434.323 466.222 434.892 469.282C435.462 472.342 427.982 498.753 430.407 506.097C432.831 513.44 400.096 502.425 394.555 509.468C389.015 516.512 366.149 503.961 366.149 503.961C366.149 503.961 378.818 471.838 381.91 469.702C385.002 467.566 388.712 451.042 381.91 443.398C375.108 435.755 374.502 428.411 374.502 428.411C374.502 428.411 399.235 429.923 394.277 413.423C392.882 408.641 390.461 404.212 387.181 400.439C383.9 396.667 379.836 393.638 375.266 391.56L376.672 389.412Z" fill="#E8E8F0"/>
<path opacity="0.1" d="M410.038 443.554C410.038 443.554 400.448 461.446 388.045 466.09C387.645 466.234 387.257 466.366 386.832 466.486C373.884 470.386 411.008 449.098 410.038 443.554Z" fill="black"/>
<path d="M275.921 285.267C275.921 285.267 280.552 296.895 284.262 300.867C287.972 304.839 315.47 344.605 315.47 344.605L317.798 349.405L319.798 353.497L337.414 351.661L338.627 344.629L337.948 343.813C336.178 341.714 331.352 336.074 328.115 333.614C324.102 330.566 316.064 320.474 316.064 320.474C316.064 320.474 291.04 294.771 289.185 287.739C287.33 280.707 262.293 238.541 256.74 245.836C251.188 253.132 275.921 285.267 275.921 285.267Z" fill="#FBBEBE"/>
<g opacity="0.1">
<path opacity="0.1" d="M327.036 474.418C324.922 474.237 322.793 474.54 320.816 475.306C316.452 477.406 315.627 483.081 313.203 487.245C310.365 492.117 304.958 495.129 299.393 496.245C298.287 496.457 297.17 496.609 296.047 496.701C299.591 497.042 303.166 496.889 306.668 496.245C312.233 495.129 317.64 492.117 320.477 487.245C322.902 483.081 323.726 477.406 328.091 475.306C329.237 474.795 330.472 474.51 331.728 474.466L327.036 474.418Z" fill="black"/>
<path opacity="0.1" d="M370.101 382.368C370.101 372.829 376.369 364.609 381.534 356.557C386.699 348.505 391.039 338.342 386.954 329.702C383.462 322.322 362.414 312.423 350.266 314.378C362.16 315.902 376.818 323.654 379.679 329.702C383.765 338.342 379.425 348.505 374.26 356.557C369.095 364.609 362.802 372.829 362.827 382.368C362.827 394.68 361.99 403.968 358.571 415.859C357.589 419.279 367.058 424.451 365.603 427.691C360.681 438.491 362.984 450.946 362.196 462.754C362.18 465.061 361.61 467.331 360.535 469.378C358.11 473.326 353.139 474.345 348.302 474.561H352.533C358.183 474.561 364.888 474.13 367.81 469.342C368.885 467.295 369.454 465.025 369.471 462.718C370.259 450.91 367.955 438.443 372.877 427.655C374.357 424.415 364.863 419.255 365.845 415.823C369.264 404.016 370.125 394.68 370.101 382.368Z" fill="black"/>
</g>
<path opacity="0.1" d="M317.798 349.381L319.798 353.473L337.414 351.637L338.627 344.605L337.948 343.789C336.069 344.701 321.993 351.409 317.798 349.381Z" fill="black"/>
<path opacity="0.1" d="M382.843 395.376C382.843 395.376 378.515 388.656 376.042 390.48C373.569 392.304 372.611 384.972 371.192 386.196C369.774 387.42 365.639 390.828 363.918 386.064C362.572 382.272 347.926 358.285 341.985 348.637C340.458 346.141 339.5 344.605 339.5 344.605C339.5 344.605 322.817 352.861 318.804 350.113V355.921L322.199 356.233L340.385 389.832C340.385 389.832 346.107 398.844 345.719 401.988C345.331 405.132 353.055 418.895 354.291 419.807C355.528 420.719 368.84 436.019 368.84 436.019C368.84 436.019 375.642 469.054 369.762 478.233C363.881 487.413 353.697 494.133 353.697 494.133C353.697 494.133 350.63 503.001 351.078 503.925C351.527 504.849 347.514 508.82 349.369 510.044C351.224 511.268 353.697 519.824 353.697 519.824C353.697 519.824 362.354 506.061 367.034 503.925C371.714 501.789 377.703 473.638 377.703 473.638C377.703 473.638 379.412 457.054 379.546 446.35C379.679 435.647 379.133 395.376 382.843 395.376Z" fill="black"/>
<path d="M381.91 395.376C381.91 395.376 377.594 388.656 375.12 390.48C372.647 392.304 371.677 384.972 370.271 386.196C368.864 387.42 364.73 390.828 362.996 386.064C361.638 382.272 346.992 358.285 341.064 348.637L338.578 344.605C338.578 344.605 321.896 352.861 317.87 350.113V355.921L321.277 356.233L339.463 389.832C339.463 389.832 345.198 398.844 344.798 401.988C344.398 405.132 352.072 418.895 353.37 419.807C354.667 420.719 367.919 436.019 367.919 436.019C367.919 436.019 374.72 469.054 368.852 478.233C365.752 482.844 361.982 486.977 357.662 490.497C354.033 493.46 351.479 497.512 350.387 502.041C350.177 502.658 350.102 503.312 350.169 503.96C350.618 504.872 346.605 508.856 348.459 510.08C350.314 511.304 352.812 519.896 352.812 519.896C352.812 519.896 361.469 506.132 366.149 503.996C370.829 501.861 376.83 473.709 376.83 473.709C376.83 473.709 378.527 457.126 378.673 446.422C378.818 435.719 378.273 395.376 381.91 395.376Z" fill="#F86D70"/>
<path opacity="0.1" d="M339.573 534.548C339.573 534.548 352.557 536.948 357.759 540.655C362.96 544.363 337.984 534.848 337.984 534.848L339.573 534.548Z" fill="black"/>
<path opacity="0.1" d="M370.792 567.115C370.792 567.115 384.335 578.286 381.91 588.378C379.485 598.47 373.229 623.861 373.229 623.861L370.792 567.115Z" fill="black"/>
<path opacity="0.1" d="M252.352 545.635C252.352 545.635 233.268 547.699 234.505 550.147C235.742 552.595 252.352 547.891 252.352 547.891V545.635Z" fill="black"/>
<path opacity="0.1" d="M398.884 638.536C398.884 638.536 400.096 640.06 393.016 638.536C385.935 637.012 391.161 632.309 391.161 632.309L398.884 638.536Z" fill="black"/>
<path opacity="0.1" d="M396.459 659.644C396.459 659.644 386.76 661.168 381.558 659.644C376.357 658.12 396.459 659.644 396.459 659.644Z" fill="black"/>
<path opacity="0.1" d="M376.503 742.225C376.503 742.225 374.805 740.389 366.306 743.749C357.807 747.109 354.412 747.265 351.939 746.149C349.466 745.033 376.503 742.225 376.503 742.225Z" fill="black"/>
<path opacity="0.1" d="M385.935 543.031L373.884 559.627C373.884 559.627 380.37 545.095 385.935 543.031Z" fill="black"/>
<path opacity="0.1" d="M362.511 390.48C362.511 390.48 361.99 395.988 354.218 398.136C346.447 400.284 344.968 402.024 344.968 402.024" fill="black"/>
<path opacity="0.1" d="M342.313 350.557C342.313 350.557 332.056 357.757 321.35 356.233Z" fill="black"/>
<path opacity="0.1" d="M350.121 504.716C350.121 504.716 353.115 506.576 360.305 498.441Z" fill="black"/>
<path opacity="0.1" d="M424.793 418.451C425.084 416.963 424.041 415.583 423.059 414.419L421.047 412.019C420.653 411.528 420.211 411.078 419.725 410.675C418.513 409.751 416.961 409.475 415.7 408.647" fill="black"/>
<path opacity="0.1" d="M1075.76 0.132043C1075.76 0.132043 973.689 -5.96376 985.691 64.8341C985.691 64.8341 983.267 77.3497 994.76 83.0255C994.76 83.0255 994.942 77.7817 1005.24 79.5696C1008.9 80.1708 1012.62 80.348 1016.33 80.0976C1021.34 79.7554 1026.09 77.8094 1029.88 74.5538V74.5538C1029.88 74.5538 1058.58 62.8181 1069.74 16.4036C1069.74 16.4036 1077.99 6.27586 1077.67 3.67194L1060.44 10.9557C1060.44 10.9557 1066.33 23.2553 1061.65 33.479C1061.65 33.479 1061.09 11.3997 1057.78 11.8797C1057.11 11.9877 1048.83 16.1396 1048.83 16.1396C1048.83 16.1396 1058.96 37.5589 1051.32 53.1344C1051.32 53.1344 1054.22 26.7352 1045.67 17.6875L1033.55 24.6953C1033.55 24.6953 1045.38 46.8226 1037.35 64.8821C1037.35 64.8821 1039.41 37.1869 1030.99 26.3992L1020 34.883C1020 34.883 1031.12 56.6983 1024.34 71.6739C1024.34 71.6739 1023.46 39.4309 1017.63 36.9949C1017.63 36.9949 1008.01 45.3947 1006.54 48.8266C1006.54 48.8266 1014.16 64.6661 1009.43 73.0178C1009.43 73.0178 1006.53 51.5385 1004.16 51.4185C1004.16 51.4185 994.578 65.65 993.584 75.4177C993.584 75.4177 993.996 60.9102 1001.84 50.0745C1001.84 50.0745 992.578 51.6465 987.171 57.5863C987.171 57.5863 988.662 47.5306 1004.21 46.6546C1004.21 46.6546 1012.12 35.855 1014.23 35.195C1014.23 35.195 998.786 33.923 989.414 38.0269C989.414 38.0269 997.658 28.5352 1017.07 32.855L1027.92 24.0833C1027.92 24.0833 1007.58 21.3354 998.943 24.3713C998.943 24.3713 1008.87 15.9716 1030.84 22.0914L1042.65 15.1076C1042.65 15.1076 1025.3 11.4117 1014.97 12.7077C1014.97 12.7077 1025.88 6.88784 1046.12 13.1997L1054.61 9.44376C1054.61 9.44376 1041.9 6.97184 1038.18 6.57585C1034.45 6.17986 1034.26 5.17189 1034.26 5.17189C1042.31 3.84336 1050.57 4.75313 1058.13 7.79982C1058.13 7.79982 1076.08 1.24801 1075.76 0.132043Z" fill="#235AAA"/>
<path opacity="0.1" d="M949.865 18.1434C949.865 18.1434 903.793 15.3835 909.188 47.3745C909.188 47.3745 908.109 53.0383 913.274 55.6062C913.274 55.6062 913.359 53.2063 918.015 54.0343C919.668 54.3097 921.349 54.3903 923.022 54.2743C925.285 54.1221 927.435 53.2413 929.145 51.7664V51.7664C929.145 51.7664 942.117 46.4745 947.161 25.4992C947.161 25.4992 950.883 20.9153 950.738 19.7393L942.954 23.0272C942.954 23.0272 945.621 28.5951 943.524 33.2149C943.524 33.2149 943.269 23.2312 941.778 23.4712C941.475 23.4712 937.728 25.3912 937.728 25.3912C937.728 25.3912 942.311 35.0749 938.856 42.1186C938.856 42.1186 940.165 30.191 936.298 26.0991L930.818 29.267C930.818 29.267 936.177 39.2627 932.539 47.4225C932.539 47.4225 933.473 34.9069 929.666 30.035L924.707 33.9109C924.707 33.9109 929.727 43.7746 926.671 50.5304C926.671 50.5304 926.271 35.9628 923.628 34.8709C923.628 34.8709 919.288 38.6628 918.621 40.2227C918.621 40.2227 922.064 47.4225 919.93 51.1424C919.93 51.1424 918.621 41.4347 917.505 41.3987C917.505 41.3987 913.189 47.8305 912.728 52.1984C912.945 48.122 914.232 44.172 916.463 40.7387C913.965 41.207 911.66 42.3873 909.831 44.1346C909.831 44.1346 910.51 39.5987 917.53 39.1907C917.53 39.1907 921.167 34.3189 922.064 34.0189C922.064 34.0189 915.081 33.4429 910.849 35.3029C910.849 35.3029 914.571 31.007 923.349 32.9029L928.199 28.9431C928.199 28.9431 919.009 27.7431 915.105 29.075C915.105 29.075 919.591 25.2832 929.52 28.0431L934.855 24.8872C934.855 24.8872 927.023 23.2072 922.343 23.8192C922.343 23.8192 927.277 21.1793 936.419 24.0352L940.238 22.3433C940.238 22.3433 934.491 21.2153 932.806 21.0473C931.121 20.8793 931.036 20.4113 931.036 20.4113C934.676 19.8121 938.412 20.2276 941.826 21.6113C941.826 21.6113 950.01 18.6474 949.865 18.1434Z" fill="#235AAA"/>
<path d="M1110.8 780.888C1137.72 780.888 1159.55 777.235 1159.55 772.728C1159.55 768.222 1137.72 764.569 1110.8 764.569C1083.88 764.569 1062.05 768.222 1062.05 772.728C1062.05 777.235 1083.88 780.888 1110.8 780.888Z" fill="#235AAA"/>
<path d="M1130.96 759.385C1133.19 757.59 1134.81 755.166 1135.61 752.437C1136.21 749.689 1135.02 746.437 1132.36 745.369C1129.37 744.241 1126.19 746.293 1123.77 748.357C1121.36 750.421 1118.58 752.785 1115.43 752.341C1117.06 750.88 1118.27 749.029 1118.96 746.966C1119.65 744.904 1119.79 742.7 1119.36 740.569C1119.22 739.686 1118.84 738.857 1118.27 738.169C1116.61 736.417 1113.61 737.161 1111.62 738.541C1105.32 742.933 1103.56 751.417 1103.53 759.037C1102.9 756.289 1103.43 753.421 1103.42 750.637C1103.4 747.853 1102.62 744.637 1100.2 743.161C1098.72 742.369 1097.04 741.98 1095.35 742.033C1092.53 741.925 1089.36 742.213 1087.44 744.265C1085.01 746.809 1085.65 751.081 1087.74 753.865C1089.83 756.649 1093.01 758.437 1095.95 760.369C1098.3 761.754 1100.3 763.645 1101.8 765.901C1101.99 766.216 1102.13 766.55 1102.24 766.897H1120.01C1123.99 764.893 1127.67 762.366 1130.96 759.385V759.385Z" fill="#235AAA"/>
</g>
<defs>
<linearGradient id="paint0_linear" x1="980.248" y1="605.897" x2="980.248" y2="123.152" gradientUnits="userSpaceOnUse">
<stop stop-color="#808080" stop-opacity="0.25"/>
<stop offset="0.54" stop-color="#808080" stop-opacity="0.12"/>
<stop offset="1" stop-color="#808080" stop-opacity="0.1"/>
</linearGradient>
<linearGradient id="paint1_linear" x1="48316.3" y1="300693" x2="108199" y2="300693" gradientUnits="userSpaceOnUse">
<stop stop-color="#808080" stop-opacity="0.25"/>
<stop offset="0.54" stop-color="#808080" stop-opacity="0.12"/>
<stop offset="1" stop-color="#808080" stop-opacity="0.1"/>
</linearGradient>
<clipPath id="clip0">
<rect width="1387" height="783" fill="white"/>
</clipPath>
</defs>
</svg>
